<?xml version="1.0" standalone="no"?>
<!DOCTYPE svg PUBLIC "-//W3C//DTD SVG 20010904//EN"
 "http://www.w3.org/TR/2001/REC-SVG-20010904/DTD/svg10.dtd">
<svg version="1.0" xmlns="http://www.w3.org/2000/svg"
 width="966.000000pt" height="966.000000pt" viewBox="0 0 966.000000 966.000000"
 preserveAspectRatio="xMidYMid meet">
<metadata>
Created by potrace 1.14, written by Peter Selinger 2001-2017
</metadata>
<g transform="translate(0.000000,966.000000) scale(0.100000,-0.100000)"
fill="#000000" stroke="none">
<path d="M470 8633 c-1 -26 -1 -1694 -1 -3705 -1 -3194 1 -3660 14 -3672 8 -8
18 -12 21 -9 12 12 35 11 30 -1 -2 -6 5 -12 17 -13 15 -1 18 1 10 11 -8 9 -4
12 14 12 19 0 22 -3 13 -13 -6 -8 -7 -13 0 -13 5 0 14 6 20 13 7 8 31 13 62
12 28 -1 54 3 57 7 2 5 5 211 5 458 0 248 3 452 7 454 4 3 13 1 20 -3 10 -6 9
-10 -4 -15 -10 -3 -13 -11 -8 -18 4 -7 8 -16 8 -20 0 -3 10 -18 22 -31 12 -14
19 -27 17 -29 -2 -3 4 -5 14 -5 9 0 21 5 25 11 5 7 7 3 5 -9 -2 -11 3 -20 10
-20 6 0 12 -3 12 -7 0 -5 0 -11 0 -15 0 -3 -8 1 -18 10 -18 17 -32 14 -32 -7
0 -6 5 -4 10 4 5 8 10 12 11 8 4 -20 6 -24 17 -46 7 -13 18 -20 24 -16 8 5 9
1 5 -10 -4 -9 -3 -14 2 -11 5 3 12 -3 15 -13 4 -10 17 -25 30 -32 14 -7 27
-24 31 -38 5 -19 9 -22 15 -12 10 16 -20 61 -34 52 -5 -3 -6 1 -1 8 6 9 4 11
-5 5 -9 -5 -11 -4 -6 4 5 7 2 10 -6 9 -7 -2 -12 5 -12 14 1 10 -2 15 -7 12 -5
-3 -9 -1 -9 5 0 5 5 13 10 16 10 6 14 -8 10 -34 -1 -13 1 -13 17 -1 10 8 15
11 11 6 -6 -7 52 -69 115 -122 16 -13 23 -24 17 -24 -6 0 -8 -5 -4 -12 4 -7 3
-8 -5 -4 -6 4 -9 12 -5 17 3 5 0 8 -8 7 -7 -2 -12 3 -10 11 2 9 -3 11 -13 7
-11 -4 -14 -2 -9 6 5 7 3 8 -6 3 -9 -6 -11 -4 -5 5 5 9 4 11 -3 6 -8 -5 -10
-1 -6 11 5 15 4 15 -7 -1 -9 -15 -9 -21 -1 -24 7 -2 10 -8 6 -13 -3 -5 -2 -9
3 -8 20 3 34 -2 28 -11 -4 -6 -3 -9 2 -8 14 4 62 -33 59 -45 -1 -7 -1 -9 1 -4
3 4 9 4 14 1 6 -4 6 -11 -1 -19 -9 -10 -7 -13 7 -11 17 3 54 -28 67 -56 3 -7
4 -3 2 9 -2 12 1 24 8 27 6 3 1 3 -11 0 -13 -3 -23 -1 -23 4 0 6 11 9 25 7 26
-2 48 -15 28 -15 -6 0 -10 -11 -9 -24 0 -13 4 -22 9 -19 4 2 7 -1 7 -7 0 -6 5
-8 12 -4 8 5 9 2 4 -11 -6 -15 -4 -16 10 -4 14 11 15 10 12 -6 -1 -10 3 -19
10 -21 7 -1 8 0 2 3 -6 3 -6 11 1 25 8 15 8 19 0 14 -6 -4 -11 -2 -11 3 0 6
-3 10 -7 10 -20 -3 -31 2 -37 17 -3 8 -2 13 3 9 5 -3 12 1 14 7 4 10 6 10 6 0
1 -7 6 -10 11 -7 6 4 9 1 8 -7 -2 -7 3 -12 10 -10 6 1 12 -3 12 -9 0 -5 5 -7
10 -4 6 4 9 1 8 -6 -2 -7 6 -13 17 -14 11 0 20 -5 20 -12 0 -6 3 -15 8 -19 4
-4 7 -2 7 4 0 7 8 5 20 -6 12 -9 24 -17 28 -17 4 -1 21 -9 37 -18 26 -16 27
-17 5 -11 -22 6 -23 5 -11 -10 10 -12 11 -19 2 -30 -9 -11 -7 -13 11 -12 14 1
22 -4 20 -12 -1 -8 2 -11 8 -7 5 3 10 0 10 -7 0 -10 2 -10 9 1 6 9 11 10 15 2
4 -6 5 -15 2 -20 -4 -5 3 -7 14 -4 13 3 20 0 20 -8 0 -11 2 -11 10 1 16 24 12
32 -12 25 -19 -5 -20 -4 -8 5 13 10 12 11 -3 6 -12 -4 -16 -2 -11 6 5 7 3 8
-6 3 -8 -5 -11 -4 -6 3 4 7 -1 10 -14 7 -12 -2 -18 0 -15 6 4 5 3 9 -2 8 -20
-3 -25 2 -13 16 11 14 15 14 32 -2 11 -10 23 -18 27 -18 3 0 5 -3 4 -7 -2 -4
5 -6 15 -5 10 0 36 -10 58 -23 21 -14 46 -25 54 -25 19 -1 79 -34 62 -35 -7 0
-11 -4 -7 -10 8 -13 36 0 28 14 -3 6 3 3 14 -7 11 -9 24 -14 28 -10 5 5 3 0
-4 -9 -8 -11 -9 -18 -3 -18 6 0 14 5 17 10 4 7 12 7 24 0 10 -5 21 -6 25 -2 4
3 4 -2 0 -11 -7 -19 15 -21 29 -2 4 6 10 0 13 -12 4 -13 11 -23 16 -23 6 0 7
8 4 18 -5 15 -4 15 6 2 7 -8 24 -16 38 -17 51 -5 59 -7 57 -17 -1 -6 11 -9 27
-8 15 2 26 0 23 -5 -3 -5 4 -15 15 -22 18 -11 20 -11 15 3 -4 10 -1 13 9 9 27
-10 13 -29 -18 -24 -5 0 -8 -3 -8 -8 0 -12 30 -22 43 -14 6 4 8 0 4 -10 -4
-12 -2 -14 10 -10 12 5 14 3 8 -8 -6 -11 -5 -12 6 -2 15 15 33 18 25 5 -3 -5
1 -9 9 -9 8 0 15 4 15 9 0 4 -4 8 -10 8 -5 0 -2 8 8 18 11 12 20 14 25 8 5 -8
10 -7 16 2 6 11 10 10 15 -3 5 -13 9 -15 20 -6 10 9 13 6 12 -14 -2 -36 -15
-42 -35 -16 -10 13 -23 21 -30 17 -14 -9 -14 -26 0 -26 5 0 7 4 4 10 -3 5 -1
10 4 10 10 0 15 -13 13 -31 -1 -3 13 -5 31 -4 18 1 37 -2 42 -6 7 -5 11 0 11
11 0 15 -4 17 -19 8 -16 -8 -17 -7 -9 9 5 10 7 25 5 33 -3 9 -1 11 4 5 4 -5
15 -12 23 -14 30 -7 45 -9 58 -10 17 -1 15 -18 -3 -18 -8 0 -15 5 -15 11 0 5
-7 1 -15 -10 -13 -16 -14 -16 -9 -2 3 10 2 18 -4 18 -13 0 -10 -24 7 -44 18
-21 35 -20 27 2 -5 14 -4 14 9 -2 11 -15 15 -16 16 -5 0 8 4 6 9 -6 8 -18 9
-18 9 -2 1 10 5 16 11 12 5 -3 7 -13 4 -23 -5 -14 -4 -14 4 -2 6 8 8 18 6 22
-3 4 0 8 6 8 6 0 8 5 5 10 -4 6 -13 7 -24 1 -13 -7 -17 -5 -18 10 -1 10 3 19
8 19 6 0 7 -5 4 -10 -3 -6 -1 -10 4 -10 6 0 11 6 11 13 0 8 4 7 10 -3 7 -11
10 -11 10 -2 0 8 5 10 13 5 6 -4 22 -8 35 -8 13 0 26 -5 30 -10 9 -12 46 -20
39 -8 -3 5 3 9 13 9 10 0 16 -4 14 -8 -6 -9 26 -6 43 5 6 4 14 4 17 -1 3 -5
34 -8 70 -7 60 2 64 0 55 -17 -6 -12 -6 -18 1 -18 5 0 10 -8 11 -17 0 -15 2
-15 8 2 5 11 4 23 -1 26 -5 3 -2 12 7 19 13 11 15 10 9 -6 -5 -18 -5 -18 9 -1
15 18 33 24 22 8 -3 -5 -1 -12 5 -16 5 -3 10 -1 10 5 0 7 7 10 15 6 8 -3 15
-1 15 3 0 5 9 7 19 4 30 -8 23 -40 -9 -37 -14 1 -25 3 -25 4 0 1 -8 3 -18 5
-10 2 -14 -1 -11 -7 5 -7 2 -8 -6 -3 -9 6 -11 4 -5 -6 8 -12 6 -12 -8 0 -15
12 -17 11 -17 -2 0 -10 7 -15 20 -12 11 2 20 0 20 -6 0 -5 5 -9 10 -9 6 0 9 5
8 11 -4 15 64 18 74 4 5 -6 8 -4 8 5 0 11 2 12 8 3 6 -9 11 -6 21 8 7 12 8 18
2 15 -15 -10 -23 11 -9 26 10 10 13 232 12 1065 -1 579 3 1053 7 1053 5 0 9 5
9 11 0 5 -4 8 -8 5 -4 -2 -8 5 -8 18 0 28 42 35 51 8 6 -22 35 -25 35 -5 0 8
-4 12 -9 8 -5 -3 -12 -1 -16 5 -4 6 4 9 19 8 15 -1 26 -5 26 -8 0 -3 9 -6 20
-7 11 -1 19 1 16 5 -2 4 7 8 20 8 28 2 30 -5 9 -32 -13 -16 -14 -16 -9 -1 4
10 1 17 -6 17 -6 0 -8 -5 -4 -11 4 -8 0 -8 -15 0 -11 7 -21 8 -21 3 0 -6 9
-12 21 -15 14 -4 18 -10 13 -19 -6 -10 -5 -10 7 -2 8 6 33 11 56 10 23 -1 39
2 37 6 -3 5 -1 8 5 8 5 0 8 8 6 18 -3 15 3 19 31 20 31 1 34 -1 30 -22 -2 -14
2 -33 10 -43 13 -17 14 -17 8 0 -4 12 -2 17 7 15 8 -2 13 3 11 10 -1 8 2 11 8
7 6 -4 9 -13 6 -21 -4 -11 -2 -12 14 -4 13 7 21 7 25 0 4 -6 11 -8 16 -4 5 3
7 10 4 15 -4 5 -2 9 4 9 5 0 12 -6 14 -12 4 -10 6 -10 6 0 1 6 8 12 17 12 8 0
12 5 9 10 -5 7 -11 8 -19 1 -7 -6 -17 -6 -26 -1 -10 6 -21 3 -35 -8 -20 -17
-20 -17 -2 4 14 17 14 21 2 21 -8 0 -11 -5 -8 -10 3 -6 1 -7 -5 -3 -20 12 -13
24 13 24 14 0 25 -4 25 -9 0 -5 5 -9 11 -9 5 0 8 4 4 9 -3 5 -1 13 5 16 6 4 9
3 8 -2 -2 -4 2 -8 7 -8 6 0 9 4 7 8 -1 5 3 5 10 0 7 -4 21 -6 31 -5 13 3 16
-2 13 -20 -2 -16 -9 -22 -22 -20 -19 2 -19 2 0 -12 19 -16 41 -12 31 5 -4 5
-2 9 4 9 5 0 8 9 6 20 -3 16 1 19 21 18 13 -1 24 -5 24 -8 0 -3 9 -6 20 -7 11
-1 19 1 16 5 -2 4 7 8 20 8 28 2 30 -5 9 -32 -13 -16 -14 -16 -9 -2 4 11 1 18
-6 18 -6 0 -8 -5 -4 -11 4 -8 0 -8 -15 0 -11 7 -21 8 -21 3 0 -6 9 -12 21 -15
12 -3 18 -10 14 -16 -3 -6 -1 -11 4 -11 6 0 11 4 11 9 0 5 20 8 44 7 25 -1 42
2 40 6 -3 4 -1 8 5 8 5 0 8 8 6 18 -3 15 3 19 31 20 30 1 34 -1 30 -21 -2 -12
1 -31 6 -42 8 -18 8 -18 4 3 -5 27 2 28 21 5 8 -10 11 -12 7 -4 -4 8 0 19 10
26 14 11 15 13 2 18 -9 4 -18 1 -22 -5 -5 -7 -2 -8 6 -3 9 6 11 4 6 -4 -9 -14
-19 -7 -22 14 -1 10 6 14 22 13 13 -1 24 -6 24 -10 0 -4 5 -8 11 -8 5 0 8 4 5
8 -2 4 6 9 19 10 18 1 23 -3 22 -18 -1 -11 -5 -20 -10 -20 -5 0 -7 7 -3 15 5
13 2 14 -17 4 -29 -15 -37 -24 -14 -16 11 4 16 3 12 -4 -4 -5 -15 -7 -26 -4
-27 9 -24 -4 4 -14 13 -5 27 -5 35 2 9 7 17 5 27 -9 15 -18 15 -18 8 1 -6 17
-5 18 9 7 10 -8 19 -9 22 -3 8 12 -4 19 -26 16 -14 -3 -16 0 -8 15 5 9 6 21 2
25 -4 5 1 5 10 2 9 -3 19 -1 22 6 3 9 5 8 5 -1 1 -7 -6 -15 -14 -18 -8 -4 -15
-10 -15 -16 0 -5 4 -7 9 -3 6 3 19 -4 29 -16 13 -13 22 -17 27 -10 4 7 12 8
24 1 12 -6 22 -5 30 3 9 9 14 8 21 -3 8 -13 10 -13 10 0 0 11 3 11 12 2 7 -7
16 -12 22 -12 5 0 1 6 -9 14 -11 8 -24 12 -28 9 -5 -3 -4 4 2 14 6 11 7 24 3
28 -4 5 0 6 10 2 9 -3 19 -3 22 0 10 10 55 9 53 0 -1 -5 4 -12 12 -15 8 -2 11
0 8 5 -3 5 5 10 18 11 18 1 23 -3 22 -18 -1 -11 -5 -20 -10 -20 -5 0 -7 7 -3
15 5 13 2 14 -17 4 -30 -16 -36 -24 -12 -15 15 5 17 4 8 -5 -12 -12 -37 -3
-28 11 3 4 -2 11 -10 14 -13 4 -13 2 -5 -14 8 -16 8 -18 -4 -14 -9 3 -15 9
-14 12 2 20 -3 32 -12 27 -5 -3 -7 -13 -4 -23 5 -14 4 -15 -5 -2 -5 8 -13 11
-18 7 -8 -9 17 -28 28 -21 4 2 10 -3 13 -12 5 -12 10 -13 19 -6 8 7 18 7 27 2
9 -5 19 -5 27 2 10 8 17 6 28 -8 15 -18 15 -18 8 1 -6 17 -5 18 9 7 10 -8 19
-9 22 -3 8 12 -4 19 -26 16 -14 -3 -16 0 -8 15 5 9 6 21 2 25 -4 5 1 5 10 2 9
-3 19 -1 22 6 3 9 5 8 5 -1 1 -7 -6 -15 -14 -18 -8 -4 -15 -10 -15 -16 0 -5 4
-7 9 -3 6 3 19 -4 29 -16 13 -13 22 -17 27 -10 3 6 11 8 17 5 6 -4 8 -2 4 4
-3 5 -1 12 5 14 6 2 0 9 -15 16 -18 8 -27 8 -32 0 -4 -6 -3 -8 3 -5 6 4 14 0
17 -8 4 -13 2 -13 -14 -5 -11 6 -17 17 -14 24 6 16 44 29 41 14 -1 -6 4 -13
12 -16 8 -2 11 0 7 6 -3 5 1 13 10 16 9 3 12 2 9 -4 -4 -6 -9 -22 -11 -37 -4
-22 -3 -24 9 -14 13 10 15 -122 15 -998 0 -555 3 -1017 6 -1028 5 -16 16 -18
73 -17 38 0 74 -4 81 -9 8 -6 12 -6 12 1 0 5 15 10 33 10 17 -1 39 0 47 1 13
1 15 120 15 1017 0 963 1 1015 17 1010 10 -2 21 1 25 6 4 7 11 4 20 -8 13 -18
14 -17 9 8 -2 15 0 30 5 34 5 3 6 10 3 16 -5 7 -2 9 8 5 9 -3 19 -3 22 0 3 4
17 7 30 8 17 0 22 -4 18 -14 -4 -10 -1 -12 9 -5 8 4 24 10 36 12 17 2 21 -2
20 -18 -1 -11 -5 -20 -10 -20 -5 0 -7 7 -3 15 4 12 2 13 -13 6 -10 -6 -21 -7
-25 -4 -3 3 -6 1 -6 -6 0 -8 6 -11 16 -7 8 3 12 2 9 -3 -8 -14 -44 -9 -38 5 9
24 -20 27 -39 3 -11 -15 -16 -18 -12 -6 3 9 2 17 -3 17 -13 0 -12 -33 1 -42 6
-4 16 -2 23 4 10 8 17 6 28 -8 14 -18 15 -18 9 0 -6 16 -4 17 13 8 14 -8 23
-8 31 0 9 9 16 7 27 -8 15 -19 15 -19 8 1 -6 17 -5 18 9 7 13 -10 18 -10 24
-1 4 7 3 9 -4 5 -6 -3 -13 -2 -17 4 -4 6 -11 7 -17 4 -6 -4 -6 0 1 13 6 11 7
24 3 28 -4 5 1 5 10 2 9 -3 19 -1 22 6 3 9 5 8 5 -1 1 -7 -6 -15 -14 -18 -21
-9 -19 -24 4 -24 10 0 22 -7 25 -16 5 -12 10 -13 19 -6 8 7 18 7 27 2 9 -5 19
-5 27 2 10 8 17 6 28 -8 15 -18 15 -18 8 1 -6 17 -5 18 9 7 13 -10 18 -10 24
-1 4 7 3 9 -4 5 -6 -3 -13 -2 -17 4 -4 6 -11 7 -17 4 -6 -4 -6 0 1 13 6 11 7
24 3 28 -4 5 1 5 10 2 9 -3 19 -1 21 6 3 7 4 2 4 -9 -1 -14 -6 -20 -14 -17 -7
3 -13 0 -13 -6 0 -6 9 -11 19 -11 10 0 22 -7 25 -16 5 -12 10 -13 19 -6 8 7
18 7 27 2 9 -5 20 -5 28 2 10 9 16 8 23 -3 8 -10 9 -9 4 8 -3 12 -1 24 5 28 6
3 8 11 5 16 -4 5 -1 9 5 9 7 0 10 -7 7 -15 -4 -8 -2 -17 3 -20 6 -4 10 2 11
12 1 29 22 -27 22 -59 0 -15 4 -25 9 -22 4 3 6 10 3 15 -4 5 -1 9 5 9 6 0 10
-8 8 -17 -2 -10 2 -17 9 -16 7 2 10 -6 8 -18 -3 -16 0 -19 13 -14 9 3 13 3 9
-1 -4 -4 -1 -14 7 -23 8 -9 16 -23 18 -31 2 -8 8 -19 13 -23 6 -5 4 -7 -4 -5
-8 2 -15 12 -17 22 -1 10 -5 21 -8 24 -5 5 -2 -32 4 -48 2 -3 2 -8 1 -12 0 -4
6 -5 15 -1 24 9 84 -79 62 -93 -7 -4 -8 -3 -4 4 4 7 2 12 -4 12 -6 0 -9 4 -6
8 9 15 -9 31 -24 22 -12 -8 -12 -10 4 -10 16 0 17 -2 5 -17 -8 -9 -9 -14 -3
-10 7 4 15 0 18 -9 3 -8 11 -12 17 -9 10 7 48 -35 40 -44 -1 -2 3 -7 11 -12 7
-5 13 -12 13 -16 1 -4 7 -19 15 -33 8 -14 14 -29 15 -33 0 -4 7 -12 15 -17 8
-5 10 -10 3 -10 -6 0 1 -13 17 -30 15 -16 30 -39 33 -50 8 -31 -1 -24 -23 20
-11 22 -23 40 -26 40 -2 0 0 -8 5 -19 6 -10 7 -21 4 -25 -3 -3 -1 -6 6 -6 7 0
9 -4 6 -10 -3 -5 -1 -10 5 -10 6 0 9 -4 6 -9 -4 -5 5 -8 18 -7 17 2 23 -1 19
-10 -3 -8 -9 -11 -14 -8 -5 3 -9 0 -9 -5 0 -15 13 -14 29 1 11 11 11 9 1 -12
-13 -24 -12 -24 6 -10 10 8 16 11 12 6 -4 -5 0 -15 8 -23 8 -8 12 -19 8 -24
-3 -5 2 -12 11 -15 12 -5 13 -9 4 -20 -8 -10 -8 -18 -1 -26 6 -7 10 -16 9 -20
-1 -3 1 -10 5 -14 4 -3 6 2 4 13 -3 12 1 20 10 20 10 0 12 -7 8 -20 -4 -14 -3
-17 6 -12 9 6 11 4 4 -6 -14 -23 -13 -38 3 -32 12 5 12 7 1 14 -7 5 -8 9 -2 9
20 0 33 -22 24 -41 -7 -12 -6 -20 0 -24 6 -4 8 -11 5 -16 -3 -5 0 -6 8 -3 8 3
22 -2 31 -11 13 -14 14 -20 5 -32 -10 -11 -9 -17 6 -31 10 -9 15 -11 11 -5 -5
9 -2 11 8 7 9 -3 13 -10 10 -15 -3 -5 2 -12 10 -15 9 -3 14 -10 11 -14 -3 -5
1 -14 8 -22 17 -18 51 -71 52 -81 0 -4 7 -12 15 -17 10 -7 11 -10 3 -10 -7 0
-13 -5 -13 -11 0 -6 7 -9 15 -5 8 3 15 0 15 -7 0 -7 18 -38 40 -69 21 -31 33
-55 25 -51 -8 3 -15 0 -15 -6 0 -6 6 -11 14 -11 21 0 66 -74 55 -91 -7 -12 -9
-12 -10 1 -1 8 -1 18 0 23 0 4 -4 7 -10 7 -5 0 -7 5 -4 10 3 6 -1 13 -9 16 -9
3 -14 9 -11 13 2 4 -3 8 -12 8 -12 0 -11 -5 7 -19 12 -10 19 -18 16 -18 -4 0
1 -14 9 -31 13 -24 19 -28 30 -19 10 8 15 8 21 -1 4 -7 3 -9 -3 -6 -6 4 -13 0
-16 -8 -4 -10 -1 -12 11 -8 15 6 15 4 -1 -14 -18 -21 -18 -21 10 -19 23 1 29
-2 29 -18 -1 -12 5 -21 14 -21 8 0 15 -6 15 -13 0 -7 6 -16 13 -21 11 -7 10
-9 -3 -14 -9 -4 -13 -3 -10 2 3 5 1 12 -5 16 -6 4 -7 12 -3 18 4 7 0 6 -10 -2
-20 -16 -22 -22 -5 -19 7 2 12 -1 13 -7 1 -17 16 -35 28 -35 7 0 6 4 -3 11
-10 7 -11 9 -2 7 8 -2 13 -7 12 -12 -1 -5 5 -13 14 -18 9 -5 14 -13 11 -19 -4
-5 1 -12 9 -15 9 -3 13 -11 9 -17 -8 -13 -12 -49 -5 -42 3 3 12 -1 21 -8 14
-11 14 -10 2 6 -7 9 -10 17 -5 17 5 0 2 5 -6 11 -10 7 -11 9 -2 7 8 -2 13 -7
12 -12 -1 -5 4 -13 12 -18 11 -7 10 -11 -3 -21 -15 -11 -14 -16 12 -46 15 -19
27 -37 26 -42 -2 -6 3 -9 19 -9 4 0 1 7 -6 15 -7 8 -8 15 -3 15 4 0 17 -17 28
-37 11 -21 24 -41 30 -45 6 -5 6 -8 -1 -8 -13 0 -32 20 -32 33 0 5 -4 12 -8
15 -4 4 -4 1 0 -5 4 -8 2 -13 -6 -13 -10 0 -10 -2 1 -9 8 -5 16 -17 17 -26 3
-20 14 -33 14 -17 0 22 25 12 41 -17 13 -22 14 -32 5 -41 -8 -10 -7 -12 6 -7
16 6 28 -6 40 -38 1 -5 6 -9 10 -8 4 2 3 -8 -2 -21 -9 -25 -5 -36 14 -36 6 0
4 5 -4 10 -9 6 -10 10 -3 10 21 0 24 -18 6 -30 -16 -10 -16 -10 3 -5 13 3 26
-1 35 -12 8 -10 9 -14 2 -10 -8 5 -11 -3 -10 -27 1 -19 4 -32 6 -30 9 9 29
-19 24 -34 -3 -12 -2 -14 4 -4 10 14 43 6 43 -10 0 -6 6 -8 14 -5 8 3 17 3 21
-1 4 -4 11 -7 16 -7 13 0 13 -19 0 -23 -6 -2 -11 1 -11 6 0 6 -11 9 -25 8 -13
-2 -22 0 -20 4 3 4 -2 13 -9 19 -11 9 -14 9 -12 -1 1 -7 5 -19 9 -25 5 -7 6
-17 2 -22 -3 -5 -1 -13 5 -16 6 -4 10 -3 9 2 -3 20 2 34 11 28 6 -4 8 -10 6
-14 -3 -4 -1 -13 5 -21 5 -10 9 -11 9 -3 0 7 7 10 18 7 14 -5 14 -4 2 4 -8 6
-19 8 -25 5 -5 -4 -7 -2 -3 2 10 10 60 16 54 6 -7 -11 12 -36 21 -28 4 5 3 11
-3 15 -5 4 -9 14 -9 22 1 8 -4 21 -9 29 -9 12 -8 13 4 6 21 -13 110 -13 110 0
0 5 5 3 10 -5 5 -8 10 -11 10 -6 0 5 7 3 15 -4 8 -7 15 -8 15 -3 0 11 65 11
76 0 12 -12 26 -8 18 6 -5 8 -2 8 9 -2 10 -7 17 -9 17 -3 0 13 27 9 42 -6 16
-16 33 -15 20 1 -16 19 139 17 164 -3 16 -13 17 -13 12 1 -4 11 0 15 13 14 10
-1 22 -4 25 -8 10 -9 26 -9 21 0 -3 5 12 8 33 8 21 0 36 -4 33 -9 -3 -4 4 -5
16 -1 13 4 21 2 21 -5 0 -6 5 -8 10 -5 6 4 7 12 3 18 -5 9 -3 9 8 1 8 -5 29
-9 47 -9 17 1 32 -3 32 -8 0 -5 -8 -6 -17 -3 -17 6 -17 5 -1 -7 10 -8 15 -17
11 -20 -3 -4 -12 2 -20 13 -8 11 -19 20 -25 20 -7 0 -4 -6 6 -13 16 -12 16
-14 2 -14 -9 0 -16 5 -16 10 0 6 -5 6 -12 0 -18 -13 -44 -10 -41 5 2 6 -4 9
-13 5 -12 -4 -13 -8 -3 -13 7 -5 -5 -7 -27 -5 -21 1 -48 -2 -59 -7 -20 -9 -20
-9 -1 6 11 9 15 16 10 16 -12 0 -34 -21 -34 -31 0 -4 9 -7 20 -6 11 1 20 4 20
7 0 3 9 6 20 7 11 1 18 -2 15 -7 -5 -9 33 -5 42 4 3 3 16 1 30 -5 17 -6 22 -6
17 2 -4 7 -1 10 7 7 8 -3 13 -11 11 -17 -1 -8 3 -9 15 -3 10 5 26 8 36 7 10
-2 14 1 11 7 -4 6 -1 8 7 6 8 -3 13 -11 11 -17 -3 -15 4 -14 21 4 13 13 18 12
40 -6 l26 -20 -4 21 c-5 25 3 26 21 3 8 -11 13 -13 14 -5 0 6 5 12 11 12 5 0
7 -4 4 -10 -3 -5 0 -7 9 -4 18 7 17 41 -1 49 -10 3 -11 0 -3 -15 8 -16 8 -18
-4 -14 -9 3 -14 10 -13 16 1 6 -9 12 -23 14 -20 3 -22 2 -10 -6 11 -8 6 -9
-20 -5 -25 4 -31 3 -20 -5 9 -6 10 -10 3 -10 -6 0 -15 5 -18 10 -5 8 -11 7
-21 -1 -8 -6 -14 -10 -15 -8 -6 31 -6 39 2 39 5 0 9 -5 9 -11 0 -5 5 -7 10 -4
6 4 7 12 3 18 -5 9 -3 9 8 1 8 -6 40 -10 72 -9 31 1 57 -2 57 -8 0 -5 7 -4 15
3 19 16 28 9 19 -14 -5 -13 -9 -14 -14 -6 -5 9 -9 9 -14 1 -4 -6 -3 -11 2 -11
6 0 8 -10 6 -22 -4 -19 -3 -20 4 -5 7 18 9 18 22 2 12 -15 15 -14 26 7 14 25
19 50 6 33 -9 -13 -32 -17 -32 -6 0 8 23 18 64 27 13 3 17 0 12 -12 -4 -10 2
-25 16 -38 l23 -21 22 22 c12 13 18 25 12 28 -5 4 -9 1 -9 -6 0 -7 -7 -4 -15
7 -12 15 -14 15 -9 2 4 -12 0 -16 -14 -15 -16 1 -18 4 -8 19 12 20 22 23 31 8
4 -6 12 -7 18 -3 7 4 45 8 85 8 39 1 66 -2 60 -7 -10 -6 -10 -8 0 -8 20 0 9
-23 -12 -26 -9 -1 -20 4 -23 13 -5 12 -7 12 -14 2 -13 -22 9 -39 37 -28 33 12
34 12 28 -9 -4 -10 -2 -13 3 -7 12 15 47 19 37 4 -4 -8 -3 -10 5 -5 6 4 9 13
5 19 -3 7 1 4 9 -6 12 -15 15 -15 20 -3 4 9 1 19 -6 23 -18 11 -47 11 -40 0 4
-6 1 -7 -7 -2 -9 6 -11 4 -5 -5 5 -8 4 -11 -2 -7 -11 7 -10 43 2 54 4 5 5 2 1
-4 -8 -15 20 -18 28 -4 5 8 14 8 45 2 2 -1 -2 -8 -9 -16 -19 -23 4 -18 25 5
12 13 22 17 29 11 7 -6 18 -6 26 -1 8 5 19 6 25 2 16 -10 34 -11 41 -1 3 5 11
6 17 2 18 -11 36 -12 43 -2 3 5 11 6 17 2 6 -4 52 -7 102 -8 49 0 95 -4 101
-7 6 -4 14 -4 18 0 13 12 94 9 89 -4 -2 -6 3 -11 12 -11 9 0 14 6 11 12 -2 7
7 11 24 11 21 0 27 -3 22 -15 -4 -12 0 -11 18 4 13 11 20 14 16 7 -8 -14 3
-16 24 -2 9 5 19 5 26 -1 8 -7 14 -6 19 1 4 7 11 8 18 2 16 -13 47 -11 47 2 0
7 3 7 8 1 10 -14 32 -17 32 -4 0 5 4 7 10 4 18 -11 50 -14 50 -4 0 5 5 9 10 9
6 0 9 -3 9 -8 -3 -19 2 -26 11 -12 7 12 9 10 8 -6 -1 -13 -8 -21 -18 -19 -8 1
-23 -2 -32 -6 -10 -6 -19 -5 -23 1 -4 6 -10 8 -15 5 -4 -3 -11 2 -14 11 -6 15
-8 15 -24 0 -15 -12 -21 -13 -31 -3 -9 9 -14 9 -20 -1 -5 -8 -12 -13 -17 -12
-5 1 -10 -4 -12 -12 -3 -10 -1 -10 6 1 8 11 11 10 15 -5 4 -18 5 -18 6 0 1 20
1 20 16 0 15 -19 15 -19 8 1 -3 11 -3 17 2 13 4 -4 16 -3 26 2 12 7 20 6 25
-2 4 -6 3 -8 -3 -5 -6 4 -17 -1 -24 -11 -12 -15 -12 -16 1 -6 12 8 54 12 63 4
1 -1 10 -3 19 -5 12 -2 15 2 10 13 -5 15 -3 15 10 4 11 -9 18 -10 23 -2 3 5
11 10 17 10 6 0 5 -7 -3 -17 -7 -10 -10 -15 -5 -11 5 4 18 3 30 -3 20 -9 20
-9 3 4 -11 9 -14 18 -8 21 5 4 12 2 16 -4 4 -7 14 -6 28 2 12 7 25 11 30 10 4
-1 2 7 -5 18 -8 12 -15 15 -19 8 -4 -6 -12 -7 -19 -3 -9 6 -11 4 -5 -6 5 -8 5
-11 0 -7 -4 4 -14 3 -22 -3 -7 -6 -13 -10 -14 -8 -7 34 -6 37 12 34 10 -2 21
1 24 6 4 5 10 7 14 5 4 -3 24 15 44 39 24 28 43 42 52 39 8 -4 12 -11 8 -17
-3 -6 -1 -7 6 -3 6 4 9 11 6 16 -3 5 4 11 15 15 21 7 26 20 12 29 -4 2 -14 1
-22 -5 -13 -7 -13 -9 0 -9 13 0 13 -2 0 -9 -25 -17 -34 1 -11 21 13 10 20 18
17 18 -4 0 5 16 21 36 25 34 26 37 10 49 -10 7 -43 34 -73 60 -30 27 -67 57
-82 69 -15 12 -34 28 -43 36 -8 8 -26 24 -40 35 -13 11 -85 72 -159 135 -75
63 -157 133 -184 155 -27 22 -56 47 -66 55 -10 8 -39 33 -65 55 -26 22 -53 45
-59 50 -6 6 -51 44 -101 85 -49 41 -92 77 -95 80 -3 4 -77 66 -165 140 -88 74
-166 140 -173 147 -7 7 -34 29 -60 50 -26 21 -51 43 -57 49 -5 6 -35 30 -65
55 -30 24 -57 46 -60 50 -3 3 -81 70 -175 148 -250 211 -258 217 -283 239 -13
11 -41 35 -62 52 -21 17 -49 41 -62 52 -13 11 -47 41 -77 66 -30 26 -72 63
-93 83 -20 20 -40 34 -43 31 -3 -3 -5 -1 -5 5 0 5 14 10 30 10 17 0 30 -4 30
-9 0 -4 5 -8 11 -8 5 0 8 4 4 9 -3 5 -1 13 5 16 6 4 9 2 8 -3 -2 -6 2 -10 7
-10 6 0 9 5 7 12 -2 6 2 5 10 -3 10 -11 10 -14 1 -18 -19 -7 -15 -19 6 -20 14
-1 19 4 16 16 -3 14 4 18 31 19 31 1 34 -1 30 -22 -2 -14 2 -33 10 -43 13 -17
14 -17 8 0 -4 12 -2 17 7 15 8 -2 13 3 11 10 -1 8 2 11 8 7 6 -4 9 -13 6 -21
-4 -11 -1 -12 12 -5 26 14 34 14 44 -1 7 -10 8 -9 4 5 -3 9 -1 17 4 17 6 0 10
-4 10 -8 0 -5 12 -14 28 -21 l27 -12 -30 25 c-30 25 -48 28 -75 11 -13 -8 -13
-6 -2 8 12 14 11 16 -7 12 -12 -2 -21 1 -21 6 0 6 -5 7 -11 4 -6 -4 -8 -13 -6
-19 3 -7 -1 -13 -8 -13 -10 0 -11 5 -5 17 5 10 6 20 3 24 -4 3 6 5 20 4 15 -1
27 -6 27 -11 0 -5 7 -3 17 4 13 11 17 11 20 2 3 -7 9 -13 14 -13 6 0 8 4 4 9
-3 5 0 13 7 17 7 4 10 4 6 -1 -4 -4 -3 -14 3 -22 6 -7 8 -13 3 -13 -5 0 7 -8
26 -19 34 -18 56 -19 45 0 -4 5 -2 9 4 9 5 0 8 9 6 20 -3 16 1 19 21 18 13 -1
24 -5 24 -8 0 -3 9 -6 20 -7 11 -1 19 1 16 5 -2 4 7 8 20 8 28 2 30 -5 9 -32
-13 -16 -14 -16 -9 -1 4 10 1 17 -6 17 -6 0 -8 -5 -4 -11 4 -8 0 -8 -15 0 -11
7 -21 8 -21 3 0 -6 9 -12 21 -15 14 -4 18 -10 13 -19 -6 -10 -5 -10 7 -2 8 6
33 11 56 10 23 -1 39 2 37 6 -3 5 -1 8 5 8 5 0 8 8 6 18 -3 15 3 19 31 20 31
1 34 -1 30 -22 -2 -14 2 -33 10 -43 13 -17 14 -17 8 0 -4 12 -2 17 7 15 8 -2
13 3 11 10 -1 8 2 11 8 7 6 -4 9 -13 6 -21 -4 -11 -1 -12 12 -5 26 14 34 14
44 -1 7 -10 8 -9 4 5 -3 9 -1 17 4 17 6 0 10 -4 10 -8 0 -5 12 -14 28 -21 l27
-12 -30 25 c-16 14 -36 23 -43 21 -8 -3 -10 0 -6 8 4 6 -3 3 -17 -8 l-24 -20
18 21 c14 17 14 21 2 21 -8 0 -11 -5 -8 -10 3 -6 1 -7 -5 -3 -20 12 -13 24 13
24 14 0 25 -4 25 -9 0 -5 5 -9 11 -9 5 0 8 4 4 9 -3 5 0 13 7 17 7 4 10 4 6
-1 -4 -4 -3 -14 3 -22 6 -7 8 -13 3 -13 -5 0 7 -8 26 -19 34 -18 56 -19 45 0
-4 5 -2 9 4 9 5 0 8 9 6 20 -3 16 1 19 21 18 13 -1 24 -5 24 -8 0 -3 9 -6 20
-7 11 -1 19 1 16 5 -2 4 7 8 20 8 28 2 30 -5 9 -32 -13 -16 -14 -16 -9 -1 4
10 1 17 -6 17 -6 0 -8 -5 -4 -11 4 -8 0 -8 -15 0 -11 7 -21 8 -21 3 0 -6 9
-12 21 -15 12 -3 18 -10 14 -16 -3 -6 -1 -11 4 -11 6 0 11 5 11 12 0 6 3 8 6
5 4 -3 15 -2 25 4 11 5 19 6 19 1 0 -4 9 -8 19 -8 15 0 17 3 9 13 -8 10 -7 12
5 7 12 -4 15 -1 12 13 -3 16 3 20 31 21 31 1 34 -1 30 -22 -2 -14 2 -33 10
-43 13 -17 14 -17 8 0 -4 12 -2 17 7 15 8 -2 13 3 11 10 -1 8 2 11 8 7 6 -4 9
-13 6 -21 -4 -11 -1 -12 12 -5 26 14 34 14 44 -1 7 -10 8 -9 4 5 -3 9 -1 17 4
17 6 0 10 -4 10 -8 0 -5 12 -14 28 -21 l27 -12 -30 25 c-16 14 -36 23 -43 21
-8 -3 -10 0 -6 8 4 6 -3 3 -17 -8 l-24 -20 18 21 c14 17 14 21 2 21 -8 0 -11
-5 -8 -10 3 -6 1 -7 -5 -3 -20 12 -13 24 13 24 14 0 25 -4 25 -9 0 -5 5 -9 11
-9 5 0 8 4 4 9 -3 5 0 13 6 17 7 4 9 3 5 -4 -3 -6 -2 -13 4 -17 6 -4 8 -9 6
-13 -2 -4 11 -15 30 -24 20 -11 36 -13 39 -7 4 5 3 8 -2 7 -14 -4 -54 23 -48
33 4 5 1 9 -4 9 -6 0 -11 5 -11 11 0 6 5 7 13 2 6 -4 19 -6 28 -5 9 2 19 -3
22 -11 3 -7 -1 -14 -9 -14 -7 0 -11 4 -8 9 3 4 -2 5 -12 1 -14 -5 -14 -7 -1
-14 22 -13 67 -7 67 9 0 7 -4 11 -9 7 -5 -3 -12 -1 -16 5 -4 6 4 9 19 8 15 -1
26 -5 26 -8 0 -3 9 -6 20 -7 11 -1 19 1 16 5 -2 4 7 8 20 8 28 2 30 -5 9 -32
-13 -16 -14 -16 -9 -2 4 11 1 18 -6 18 -6 0 -8 -5 -4 -11 4 -8 0 -8 -15 0 -11
7 -21 8 -21 3 0 -6 9 -12 21 -15 14 -4 18 -10 13 -19 -6 -10 -5 -10 7 -2 8 6
33 11 56 10 23 -1 39 2 37 6 -3 5 -1 8 5 8 5 0 8 8 6 18 -3 15 3 19 31 20 31
1 34 -1 30 -22 -2 -14 2 -33 10 -43 13 -17 14 -17 8 0 -4 12 -2 17 7 15 8 -2
13 3 11 10 -1 8 2 11 8 7 6 -4 9 -13 6 -21 -4 -11 -2 -12 14 -4 13 7 21 7 25
0 4 -6 11 -8 16 -4 5 3 7 10 4 15 -4 5 -2 9 4 9 5 0 12 -6 14 -12 4 -10 6 -10
6 0 1 6 8 12 17 12 8 0 12 5 9 10 -5 7 -11 8 -19 1 -7 -6 -17 -6 -26 -1 -10 6
-21 3 -35 -8 -20 -17 -20 -17 -2 4 14 17 14 21 2 21 -8 0 -11 -5 -8 -10 3 -6
1 -7 -5 -3 -20 12 -13 24 13 24 14 0 25 -4 25 -9 0 -5 5 -9 11 -9 5 0 8 4 4 9
-3 5 -1 13 5 16 6 4 9 3 8 -2 -2 -4 2 -8 7 -8 6 0 9 4 7 8 -1 5 3 5 10 0 7 -4
21 -6 31 -5 13 3 16 -2 13 -20 -2 -16 -9 -22 -22 -20 -19 2 -19 2 0 -12 19
-16 41 -12 31 5 -4 5 -2 9 4 9 5 0 8 9 6 20 -2 13 2 20 11 20 17 0 19 -17 2
-23 -7 -2 1 -8 17 -12 17 -5 41 -15 55 -23 l25 -15 -25 25 c-14 14 -33 24 -42
22 -20 -3 -14 22 8 30 8 3 12 2 9 -3 -3 -5 -1 -12 5 -16 5 -3 10 -1 10 5 0 6
5 8 11 4 8 -5 8 -9 -1 -14 -8 -5 -8 -9 3 -13 10 -4 14 0 12 11 -1 9 0 21 3 26
3 6 5 35 5 65 -1 31 -2 88 -2 126 l-1 70 -987 0 c-544 -1 -995 1 -1004 3 -15
3 -17 50 -15 525 l1 522 67 0 c36 0 64 -3 62 -7 -3 -5 -2 -8 3 -9 4 0 16 -2
25 -4 10 -2 15 2 12 9 -6 14 82 16 104 3 7 -5 12 -4 12 2 0 12 27 10 48 -2 7
-5 12 -4 12 2 0 14 34 9 54 -8 14 -12 16 -12 10 3 -5 12 -1 15 15 13 11 -2 24
-6 27 -10 10 -10 26 -9 20 1 -2 4 33 7 79 7 53 0 81 -4 77 -10 -4 -5 -7 -23
-8 -39 -1 -17 1 -24 6 -16 4 7 15 10 25 7 9 -4 13 -3 10 2 -3 5 2 11 10 13 15
3 15 5 0 23 -12 16 -14 17 -9 3 3 -10 1 -18 -5 -18 -6 0 -13 0 -16 0 -3 0 -5
3 -4 8 1 4 5 6 10 5 4 -2 6 3 3 11 -4 10 7 13 43 12 26 -1 54 -5 61 -9 7 -5
12 -4 12 2 0 12 27 10 48 -2 7 -5 12 -4 12 2 0 14 34 9 54 -8 14 -12 16 -12
10 3 -5 12 -1 15 15 13 11 -2 24 -6 27 -10 10 -9 26 -9 20 1 -2 4 9 8 26 9 17
0 25 -2 18 -7 -6 -4 -12 -11 -13 -16 -1 -5 -10 -8 -19 -8 -10 1 -15 -4 -12
-10 3 -6 -2 -2 -10 8 -11 14 -16 15 -16 6 0 -9 -5 -7 -15 6 -15 19 -15 19 -8
0 5 -16 3 -18 -11 -13 -12 5 -15 3 -10 -6 6 -9 5 -9 -7 0 -12 10 -18 10 -29 0
-10 -10 -11 -9 -5 3 6 12 5 12 -5 3 -9 -8 -9 -16 -1 -30 10 -17 10 -17 11 1 0
19 0 19 22 0 12 -10 18 -13 13 -5 -6 11 -4 13 9 8 9 -4 15 -3 12 2 -3 5 3 11
15 14 16 4 19 2 14 -16 -5 -16 -4 -18 3 -8 6 8 17 11 25 8 12 -4 14 -2 10 9
-5 14 -3 14 15 3 11 -7 18 -18 15 -24 -4 -5 -2 -6 3 -2 5 5 10 13 10 18 3 19
4 19 18 7 8 -7 11 -17 8 -22 -3 -5 0 -6 6 -2 22 13 -2 42 -30 37 -5 0 -8 3 -8
9 0 5 5 10 11 10 5 0 8 3 6 8 -3 4 17 7 43 7 31 1 46 -3 42 -10 -4 -5 -7 -23
-8 -39 -1 -17 1 -24 6 -16 4 7 15 10 25 7 9 -4 13 -3 10 2 -3 5 2 11 10 13 15
3 15 5 0 23 -12 16 -14 17 -9 3 3 -10 1 -18 -5 -18 -6 0 -13 0 -16 0 -3 0 -5
3 -4 8 1 4 5 6 10 5 4 -2 6 3 3 11 -4 10 7 13 43 12 26 -1 54 -5 61 -9 7 -5
12 -4 12 2 0 12 27 10 48 -2 7 -5 12 -4 12 2 0 14 34 9 54 -8 14 -12 16 -12
10 3 -5 12 -1 15 15 13 11 -2 24 -6 27 -10 10 -10 26 -9 20 1 -2 4 33 7 79 7
53 0 81 -4 77 -10 -4 -5 -7 -23 -8 -39 -1 -17 1 -24 6 -16 4 7 15 10 25 7 9
-4 13 -3 10 2 -3 5 2 11 10 13 15 3 15 5 0 23 -12 16 -14 17 -9 3 3 -10 1 -18
-5 -18 -6 0 -13 0 -16 0 -3 0 -5 3 -4 8 1 4 5 6 10 5 4 -2 6 3 3 11 -4 10 7
13 43 12 26 -1 54 -5 61 -9 7 -5 12 -4 12 2 0 12 27 10 48 -2 7 -5 12 -4 12 2
0 14 34 9 54 -8 14 -12 16 -12 11 0 -4 12 8 15 69 14 67 0 73 -1 60 -16 -8 -8
-11 -19 -7 -24 5 -4 1 -4 -7 1 -22 12 -39 14 -46 3 -3 -5 -10 -7 -15 -3 -5 3
-7 10 -4 15 4 5 2 9 -3 9 -5 0 -9 -14 -9 -30 0 -17 4 -26 8 -19 4 7 14 9 22 6
12 -4 15 -1 11 11 -4 12 1 10 15 -7 12 -13 21 -18 21 -11 0 7 7 10 16 6 8 -3
12 -2 9 4 -3 6 -3 16 2 23 13 21 17 83 14 235 l-1 62 -1135 0 -1135 0 -1 -37
c0 -21 -1 -316 -1 -655 0 -409 -4 -618 -11 -618 -8 0 -90 61 -107 80 -3 3 -32
28 -65 55 -33 28 -62 52 -65 55 -3 3 -21 18 -40 34 -19 16 -57 48 -85 71 -125
107 -215 183 -259 220 -27 22 -54 45 -60 50 -6 6 -67 57 -136 115 -69 57 -127
107 -130 110 -3 3 -45 39 -95 80 -49 41 -92 77 -95 80 -3 3 -32 28 -65 55 -33
28 -65 55 -71 60 -6 6 -35 30 -64 55 -30 25 -72 61 -95 80 -23 19 -63 53 -90
75 -26 22 -55 47 -64 55 -9 9 -41 36 -71 60 -30 25 -57 47 -60 50 -7 8 -242
206 -320 270 -36 30 -67 57 -70 60 -3 3 -45 39 -95 80 -49 41 -92 77 -95 80
-3 4 -77 66 -165 140 -88 74 -178 150 -201 169 -54 48 -146 126 -413 350 -120
100 -173 145 -190 161 -9 8 -41 35 -71 60 -66 54 -95 78 -125 105 -12 11 -33
29 -46 39 -32 26 -143 120 -149 126 -3 3 -59 50 -125 105 -65 55 -126 107
-135 115 -9 8 -28 24 -41 35 -50 41 -144 120 -155 130 -6 6 -35 30 -64 55 -30
25 -72 61 -95 80 -23 19 -65 55 -95 80 -85 72 -213 180 -240 204 -14 12 -95
80 -180 151 -85 71 -173 145 -195 164 -22 20 -63 55 -90 78 -51 42 -390 327
-435 366 -14 12 -66 56 -115 97 -50 41 -96 81 -104 88 -7 7 -67 58 -132 113
l-119 100 0 -48z m300 -546 c26 -24 188 -161 280 -237 30 -25 73 -61 95 -81
22 -19 96 -82 165 -140 69 -57 130 -108 136 -114 6 -5 32 -28 58 -50 27 -22
56 -47 66 -55 10 -8 39 -33 66 -55 26 -22 52 -44 58 -50 6 -5 38 -32 71 -60
33 -27 62 -52 65 -55 3 -3 46 -39 95 -80 50 -41 92 -77 95 -80 3 -3 32 -28 65
-55 33 -28 65 -54 71 -60 17 -15 111 -95 189 -160 112 -94 190 -160 195 -165
4 -5 79 -67 148 -125 14 -11 30 -25 36 -30 6 -6 38 -33 71 -60 33 -28 62 -52
65 -55 3 -3 32 -28 65 -55 33 -28 62 -52 65 -55 3 -3 46 -39 95 -80 50 -41 92
-77 95 -80 3 -3 48 -41 100 -85 52 -44 126 -107 165 -140 39 -33 92 -78 119
-100 27 -22 54 -45 60 -50 6 -6 72 -62 146 -124 155 -130 182 -153 230 -195
20 -17 57 -49 84 -71 27 -22 65 -55 85 -72 l36 -32 -1737 -1 -1738 0 0 1465
c0 806 3 1465 8 1465 4 0 18 -10 32 -23z m-4 -3180 c4 -3 12 -3 18 1 6 4 151
7 322 7 273 0 311 -2 307 -15 -4 -13 -3 -13 9 0 8 9 32 15 61 16 41 1 45 0 30
-12 -14 -9 -21 -10 -32 -1 -12 10 -14 9 -8 -5 4 -13 2 -15 -10 -11 -11 4 -14
2 -9 -5 5 -8 2 -10 -9 -6 -9 4 -15 3 -14 -2 4 -21 -2 -26 -16 -14 -8 7 -13 16
-10 20 3 5 -9 7 -27 6 -18 -2 -43 4 -55 12 -15 9 -23 11 -24 3 -1 -6 -2 -16
-3 -21 0 -6 -7 -15 -15 -19 -9 -6 -3 -8 17 -8 20 1 28 5 22 11 -20 20 -9 26
15 10 14 -9 22 -21 18 -28 -4 -7 -1 -6 9 1 8 7 19 9 23 5 5 -4 5 -1 0 7 -5 9
-3 12 5 9 29 -9 16 -25 -58 -70 -216 -130 -413 -314 -559 -521 l-41 -58 0 316
c0 213 3 315 10 315 6 0 5 7 -3 17 -11 13 -11 17 -1 21 9 3 10 7 2 17 -8 10
-7 13 4 11 9 -1 18 -5 22 -9z m1934 -1716 l0 -1731 -57 5 c-820 74 -1470 443
-1742 990 -47 94 -113 273 -126 340 -3 17 -12 68 -21 115 -19 100 -26 408 -13
524 43 367 180 660 423 901 125 124 245 213 404 297 179 96 448 193 622 224
14 3 41 9 60 14 19 4 60 12 90 15 30 4 64 9 75 11 11 3 54 7 95 11 41 3 76 7
77 8 2 1 28 3 58 4 l55 2 0 -1730z m740 1723 c0 0 -12 -11 -27 -25 -14 -13
-23 -19 -20 -13 4 7 0 17 -8 24 -11 9 -14 8 -12 -9 1 -12 5 -21 10 -21 4 0 5
-6 1 -12 -6 -10 -5 -10 8 -1 8 7 19 9 23 5 5 -4 5 -1 0 7 -6 10 -2 11 15 6 12
-4 28 -8 35 -9 7 -1 21 -8 31 -16 17 -14 18 -14 5 3 -15 19 -2 24 17 5 7 -7
12 -8 12 -4 0 5 8 2 17 -5 9 -8 14 -9 10 -3 -4 7 -1 14 7 17 17 7 15 39 -3 45
-13 4 -11 -19 3 -29 5 -4 -5 -6 -22 -6 -22 1 -28 5 -21 13 6 8 6 14 1 18 -6 3
-13 -1 -16 -10 -6 -15 -8 -15 -27 2 -13 12 -19 14 -17 5 2 -7 -5 -15 -14 -16
-13 -2 -15 0 -7 14 10 14 45 16 359 16 305 0 347 -2 342 -15 -5 -13 -3 -13 14
1 14 12 39 15 104 13 47 -1 88 -2 91 -3 3 0 6 -286 7 -635 0 -477 -2 -635 -11
-638 -7 -2 -320 -4 -697 -4 l-685 1 -1 627 c0 345 3 625 8 622 5 -3 6 -9 4
-13 -3 -4 1 -8 9 -8 15 0 11 11 -11 37 -11 13 15 15 227 15 131 0 239 0 239
-1z m44 -32 c3 -5 -1 -9 -9 -9 -8 0 -12 4 -9 9 3 4 7 8 9 8 2 0 6 -4 9 -8z
m-2104 -8 c0 -8 -19 -13 -24 -6 -3 5 1 9 9 9 8 0 15 -2 15 -3z m3364 -155 c13
-15 27 -25 31 -21 4 4 5 3 3 -3 -1 -5 0 -10 3 -10 15 0 37 -28 32 -41 -4 -11
-9 -9 -24 9 -10 12 -18 16 -19 10 0 -7 5 -13 11 -13 5 0 8 -4 5 -8 -2 -4 4
-13 14 -20 14 -9 21 -9 26 0 5 7 2 8 -7 3 -11 -7 -11 -6 1 9 13 17 15 17 32
-3 9 -12 20 -22 24 -21 4 0 9 -7 10 -16 3 -20 14 -32 14 -15 0 9 4 8 15 -3 18
-18 20 -52 3 -60 -7 -3 -3 -3 9 0 17 4 21 2 17 -9 -2 -7 2 -20 11 -27 8 -7 15
-9 15 -4 0 5 12 -4 26 -21 14 -16 22 -24 18 -16 -5 10 -1 11 17 6 23 -7 23 -7
4 8 -15 11 -22 12 -28 4 -6 -8 -7 -5 -3 6 4 12 2 16 -6 11 -7 -5 -8 -3 -3 6 5
9 4 11 -4 6 -6 -4 -14 0 -17 9 -6 14 -9 14 -16 3 -8 -10 -9 -9 -4 4 3 10 1 20
-4 23 -6 4 -10 12 -10 18 0 7 4 6 10 -3 5 -8 10 -11 10 -6 0 5 6 3 14 -4 8 -6
13 -17 10 -24 -3 -9 3 -13 18 -12 14 1 23 -5 23 -14 1 -8 6 -14 13 -12 7 1 12
-3 12 -9 0 -5 5 -7 12 -3 6 4 8 3 5 -3 -4 -6 0 -16 8 -23 8 -7 15 -9 15 -4 0
4 15 -6 33 -22 17 -17 45 -40 61 -52 16 -12 23 -22 17 -22 -7 0 -9 -5 -6 -10
4 -6 10 -8 15 -5 5 3 26 -10 47 -28 21 -19 49 -42 62 -53 52 -41 59 -51 55
-83 -3 -26 0 -30 16 -28 11 2 22 6 26 10 4 3 -2 5 -14 2 -11 -2 -19 2 -18 8 2
15 16 18 35 8 10 -6 11 -13 2 -29 -14 -25 -14 -43 -1 -22 9 13 10 13 11 0 1
-8 0 -19 -1 -25 -1 -5 2 -6 6 -2 12 12 14 37 3 37 -6 0 -7 5 -3 11 4 8 9 7 15
-2 4 -7 5 -17 3 -21 -3 -4 -1 -8 5 -8 5 0 11 3 14 8 2 4 2 1 0 -7 -2 -8 2 -11
10 -8 8 3 20 1 28 -4 12 -7 12 -9 0 -9 -17 0 -5 -15 12 -15 7 -1 11 -7 9 -14
-2 -8 3 -11 11 -8 15 6 67 -41 67 -59 0 -5 -5 -2 -10 6 -8 13 -10 12 -10 -3 0
-10 -5 -15 -10 -12 -6 4 -8 11 -5 16 4 5 -1 12 -10 15 -12 5 -13 9 -5 14 9 5
9 9 1 14 -6 4 -11 2 -11 -5 0 -6 -18 5 -40 25 -39 35 -60 39 -60 13 0 -8 3 -8
9 1 7 11 9 11 14 -2 4 -9 11 -15 16 -14 5 2 9 -1 9 -7 0 -5 -5 -9 -11 -7 -7 2
-9 1 -5 -3 3 -4 10 -7 15 -7 4 1 16 -7 27 -16 10 -9 20 -16 22 -14 10 6 25 1
20 -7 -8 -12 14 -27 41 -29 17 0 20 3 15 16 -5 15 -4 15 12 0 9 -10 22 -18 27
-18 5 0 8 -5 6 -12 -1 -7 3 -12 8 -13 18 -1 35 -16 29 -26 -3 -5 -9 -7 -13 -5
-4 3 -8 -1 -8 -8 0 -8 7 -12 15 -9 12 5 12 2 2 -17 -8 -16 -9 -20 -1 -15 14 8
43 -13 36 -25 -3 -5 1 -7 7 -6 7 1 13 6 13 11 0 6 -4 9 -8 7 -5 -1 -5 3 -1 9
4 8 3 9 -4 5 -8 -5 -10 -1 -6 11 4 14 3 15 -4 4 -7 -9 -12 -10 -16 -2 -4 6 -1
11 6 11 10 0 10 2 -1 9 -7 5 -9 11 -4 14 6 4 16 -5 23 -18 7 -13 18 -22 23
-18 6 3 7 1 3 -5 -3 -6 -2 -13 4 -17 5 -3 10 -2 10 4 0 6 11 -1 25 -14 13 -14
30 -25 36 -25 7 0 10 -3 7 -6 -4 -3 -16 -1 -27 6 -12 6 -21 7 -22 3 0 -4 -2
-16 -4 -26 -2 -9 1 -15 6 -11 5 3 9 -1 10 -8 0 -9 2 -10 5 -1 3 7 13 9 22 6
15 -4 15 -3 2 6 -9 6 -10 11 -3 11 6 0 19 -7 27 -16 9 -8 16 -12 16 -8 0 4 9
-1 20 -11 11 -10 17 -22 13 -28 -4 -6 0 -8 10 -4 11 4 20 -1 27 -14 6 -11 16
-17 23 -13 7 4 8 3 4 -1 -11 -13 -38 -15 -30 -2 4 7 0 8 -11 4 -10 -4 -15 -3
-11 3 3 6 1 10 -4 10 -17 0 -13 -30 4 -31 31 -3 35 -4 35 -13 0 -6 -7 -12 -17
-14 -25 -5 -565 -9 -581 -4 -10 3 -102 149 -188 299 -21 36 -370 622 -415 696
-16 27 -29 55 -29 63 0 8 -6 14 -12 14 -9 0 -8 4 2 10 13 8 13 10 -2 10 -9 0
-19 4 -22 8 -13 22 28 5 48 -19z m107 -752 c108 -180 193 -329 190 -330 -3 -2
-98 -3 -211 -3 l-205 1 -2 354 c-1 333 -1 352 15 330 9 -13 105 -171 213 -352z
m680 46 c13 -16 12 -17 -3 -4 -10 7 -18 15 -18 17 0 8 8 3 21 -13z m289 -233
c0 -5 -2 -10 -4 -10 -3 0 -8 5 -11 10 -3 6 -1 10 4 10 6 0 11 -4 11 -10z m170
-119 c0 -5 6 -11 13 -14 6 -2 4 -3 -5 -2 -9 2 -19 -2 -22 -9 -2 -6 -3 -1 -3
12 1 21 17 33 17 13z m-2812 -291 c-2 -5 2 -9 7 -7 6 1 9 7 7 12 -2 6 3 4 10
-4 11 -11 11 -14 -1 -18 -10 -4 -10 -7 -1 -13 8 -5 7 -9 -5 -13 -9 -4 -13 -3
-10 2 3 5 1 12 -5 16 -5 3 -10 2 -10 -3 0 -6 -7 -12 -14 -15 -10 -4 -13 -1 -9
9 3 7 9 14 14 14 5 0 8 3 8 8 -2 12 1 22 6 22 3 0 4 -4 3 -10z m477 1 c-3 -5
4 -16 15 -24 18 -13 19 -15 5 -21 -9 -3 -13 -2 -10 3 3 5 1 12 -5 16 -5 3 -10
2 -10 -3 0 -6 -7 -12 -14 -15 -10 -4 -13 -1 -9 9 3 7 9 14 14 14 5 0 8 3 8 8
-2 12 1 22 7 22 3 0 3 -4 -1 -9z m35 -12 c0 -6 -4 -7 -10 -4 -5 3 -10 11 -10
16 0 6 5 7 10 4 6 -3 10 -11 10 -16z m1418 10 c-2 -6 3 -14 11 -17 8 -2 11 0
8 5 -3 5 5 10 19 11 28 2 30 -5 8 -36 -12 -17 -19 -20 -33 -13 -12 7 -22 6
-31 -2 -10 -9 -11 -9 -6 1 4 6 3 12 -1 12 -16 0 -12 39 5 43 9 3 18 5 20 6 1
0 1 -4 0 -10z m1295 -43 l57 -49 0 -738 c0 -407 -2 -739 -5 -739 -6 0 -185
300 -185 311 0 5 -4 9 -8 9 -5 0 -15 15 -24 33 -9 17 -175 298 -371 624 -195
326 -350 594 -345 595 5 2 192 3 417 3 l407 0 57 -49z m748 42 c13 2 16 -5 16
-26 -2 -28 -3 -29 -24 -15 -13 9 -20 19 -17 24 3 5 0 9 -5 9 -6 0 -11 5 -11
11 0 6 5 7 13 2 6 -4 19 -6 28 -5z m187 2 c-2 -5 2 -9 7 -7 6 1 9 7 7 12 -2 6
3 4 10 -4 11 -11 11 -14 -1 -18 -10 -4 -10 -7 -1 -13 8 -5 7 -9 -5 -13 -9 -4
-13 -3 -10 2 3 5 1 12 -5 16 -5 3 -10 2 -10 -3 0 -6 -7 -12 -14 -15 -10 -4
-13 -1 -9 9 3 7 9 14 14 14 5 0 8 3 8 8 -2 12 1 22 6 22 3 0 4 -4 3 -10z m293
-2 c13 2 16 -5 16 -26 -2 -28 -3 -29 -24 -15 -13 9 -20 19 -17 24 3 5 0 9 -5
9 -6 0 -11 5 -11 11 0 6 5 7 13 2 6 -4 19 -6 28 -5z m184 3 c-3 -5 -1 -12 5
-16 5 -3 10 -12 10 -18 0 -7 -4 -6 -10 3 -5 8 -10 10 -10 4 0 -7 -7 -14 -14
-17 -10 -4 -13 -1 -9 9 3 7 9 14 14 14 5 0 8 3 8 8 -2 12 1 22 7 22 3 0 3 -4
-1 -9z m35 -12 c0 -6 -4 -7 -10 -4 -5 3 -10 11 -10 16 0 6 5 7 10 4 6 -3 10
-11 10 -16z m448 11 c-2 -5 2 -9 7 -7 6 1 9 7 7 12 -2 6 3 4 10 -4 11 -11 11
-14 -1 -18 -10 -4 -10 -7 -1 -13 8 -5 7 -9 -5 -13 -9 -4 -13 -3 -10 2 3 5 1
12 -5 16 -5 3 -10 2 -10 -3 0 -6 -7 -12 -14 -15 -10 -4 -13 -1 -9 9 3 7 9 14
14 14 5 0 8 3 8 8 -2 12 1 22 6 22 3 0 4 -4 3 -10z m-4959 -22 c10 -18 11 -20
0 -10 -17 16 -32 15 -26 -1 3 -8 -1 -14 -8 -14 -10 0 -11 5 -5 17 5 10 6 20 3
24 -3 3 0 6 8 6 8 0 20 -10 28 -22z m709 3 c-4 -24 -30 -41 -49 -31 -10 6 -21
5 -29 -3 -9 -8 -11 -8 -7 -1 4 7 0 14 -8 18 -8 3 -12 12 -9 19 3 10 21 14 55
14 40 0 49 -3 47 -16z m638 -6 c0 -13 -3 -21 -5 -19 -2 2 -10 -1 -17 -7 -8 -7
-14 -7 -19 1 -3 6 -12 7 -18 3 -7 -3 -3 4 8 17 18 21 18 23 2 17 -10 -4 -16
-3 -13 2 3 4 18 8 35 9 24 0 29 -3 27 -23z m322 6 c-4 -24 -30 -41 -49 -31
-10 6 -21 5 -29 -3 -9 -8 -11 -8 -7 -1 4 7 0 14 -8 18 -8 3 -12 12 -9 19 3 10
21 14 55 14 40 0 49 -3 47 -16z m2491 -3 c10 -18 11 -20 0 -10 -17 16 -32 15
-26 -1 3 -8 -1 -14 -8 -14 -10 0 -11 5 -5 17 5 10 6 20 3 24 -3 3 0 6 8 6 8 0
20 -10 28 -22z m480 0 c10 -18 11 -20 0 -10 -17 16 -32 15 -26 -1 3 -8 -1 -14
-8 -14 -10 0 -11 5 -5 17 5 10 6 20 3 24 -3 3 0 6 8 6 8 0 20 -10 28 -22z
m480 0 c10 -18 11 -20 0 -10 -17 16 -32 15 -26 -1 3 -8 -1 -14 -8 -14 -10 0
-11 5 -5 17 5 10 6 20 3 24 -3 3 0 6 8 6 8 0 20 -10 28 -22z m-3691 -12 c-2
-1 -12 -8 -22 -16 -18 -14 -18 -14 -6 7 8 12 18 19 23 16 4 -3 7 -6 5 -7z
m-1381 -11 c0 -8 -4 -12 -9 -9 -5 3 -6 10 -3 15 9 13 12 11 12 -6z m5120 0 c0
-8 -4 -12 -9 -9 -5 3 -6 10 -3 15 9 13 12 11 12 -6z m-1766 -290 c5 4 6 -2 2
-11 -4 -11 -3 -15 4 -11 6 4 21 -5 32 -19 12 -15 21 -24 21 -20 0 9 35 -18 92
-69 32 -29 37 -39 27 -51 -7 -9 -8 -14 -1 -14 6 0 16 8 21 18 13 22 14 6 1
-18 -7 -13 -16 -17 -28 -13 -9 3 -14 3 -10 -1 3 -4 14 -9 25 -11 10 -1 17 -8
16 -13 -2 -6 4 -9 11 -6 8 3 19 -3 26 -15 6 -11 16 -20 23 -18 7 1 11 -6 9
-18 -2 -16 -1 -17 7 -5 5 8 7 19 3 25 -3 5 1 4 9 -2 10 -8 19 -9 25 -3 7 7 17
3 30 -11 10 -12 18 -24 17 -28 -2 -3 1 -6 5 -6 5 0 23 -12 41 -27 25 -21 30
-32 23 -44 -6 -11 -11 -13 -16 -5 -4 6 -2 11 4 11 6 0 8 5 4 11 -4 8 -9 7 -15
-2 -7 -12 -9 -11 -10 1 -1 8 -1 19 0 23 1 5 -3 6 -8 3 -5 -4 -12 -2 -16 4 -4
6 -11 7 -17 4 -7 -5 -8 -2 -3 6 5 9 4 11 -4 6 -9 -6 -9 -11 0 -22 6 -7 15 -12
19 -9 4 3 18 -10 31 -29 15 -22 31 -33 46 -33 13 0 23 3 23 8 0 4 -9 6 -21 4
-17 -4 -19 -2 -9 10 16 20 26 19 34 -2 5 -11 0 -23 -11 -32 -17 -13 -17 -13 2
-6 30 10 59 15 52 8 -7 -6 22 -38 36 -38 5 0 15 -9 23 -19 8 -11 14 -16 14
-11 0 9 45 -35 45 -45 1 -15 24 -44 31 -38 4 4 1 16 -6 25 -8 10 5 -1 27 -24
23 -23 44 -38 48 -35 4 4 5 0 3 -8 -2 -8 2 -14 7 -15 16 0 56 -31 54 -41 -4
-21 2 -28 12 -14 9 13 10 12 5 -3 -5 -15 -2 -17 13 -12 14 4 21 0 26 -14 3
-11 11 -20 18 -18 6 1 11 -4 12 -10 0 -7 4 -12 8 -10 5 1 13 -6 18 -16 6 -9
14 -15 19 -12 5 3 15 -4 23 -15 7 -11 17 -17 22 -12 5 4 5 2 1 -5 -3 -7 2 -14
14 -18 11 -4 18 -11 15 -16 -4 -5 0 -9 8 -9 8 0 18 -7 21 -16 3 -8 11 -12 16
-9 6 4 9 1 8 -7 -2 -8 4 -12 15 -10 19 3 22 -6 6 -28 -9 -13 -10 -13 -6 2 4
11 0 15 -11 14 -9 -2 -17 -8 -18 -15 -1 -6 0 -8 2 -3 3 5 20 -6 40 -25 19 -18
33 -37 29 -43 -4 -6 1 -7 11 -3 13 5 15 3 9 -8 -7 -11 -5 -11 10 1 17 13 18
13 13 -1 -3 -9 -2 -22 3 -30 6 -10 9 -10 9 -1 0 6 4 12 9 12 5 0 8 -8 7 -17
-1 -22 36 -24 41 -3 3 11 2 12 -4 3 -6 -9 -12 -7 -21 7 -7 12 -8 20 -2 20 5 0
10 -5 10 -10 0 -6 6 -9 13 -8 8 2 12 -11 11 -41 -1 -24 2 -38 6 -32 5 9 11 8
24 -4 9 -9 14 -20 11 -24 -5 -9 43 -6 52 2 2 3 0 8 -6 12 -6 3 -11 1 -11 -4 0
-6 -8 -3 -18 7 -10 9 -14 20 -9 23 5 4 4 9 -2 13 -6 4 -11 2 -11 -3 0 -16 -17
-13 -23 4 -4 8 -1 17 5 21 7 5 8 2 3 -6 -6 -9 -4 -12 7 -8 9 4 29 -7 50 -26
33 -31 34 -33 17 -44 -11 -7 -19 -18 -18 -25 0 -9 2 -9 5 0 3 7 13 9 22 6 15
-4 15 -3 2 7 -13 10 -12 11 5 5 11 -4 27 -8 35 -9 8 -2 15 -9 15 -17 0 -8 5
-14 12 -14 6 0 25 -12 41 -27 17 -14 34 -23 38 -20 4 4 4 2 0 -5 -5 -10 9 -27
24 -28 5 0 58 -45 95 -80 11 -11 25 -21 30 -22 6 -2 10 -7 10 -13 0 -5 3 -9 6
-7 13 5 47 -35 42 -49 -4 -12 -9 -10 -21 7 -13 20 -16 20 -24 4 -6 -9 -7 -19
-4 -22 3 -4 6 -1 6 5 0 7 5 12 11 12 6 0 8 -9 4 -22 -4 -13 -3 -18 2 -11 6 8
16 5 35 -12 15 -13 24 -26 20 -31 -4 -4 -1 -4 6 0 8 5 16 -1 21 -16 7 -17 10
-19 10 -5 1 23 -2 33 -11 30 -4 -2 -5 5 -2 15 4 13 3 14 -4 4 -7 -11 -10 -11
-16 3 -3 9 -11 13 -17 9 -8 -5 -9 -3 -4 6 6 9 4 11 -6 5 -11 -7 -11 -5 1 9 13
17 16 16 42 -13 15 -17 30 -31 33 -30 12 1 75 -61 73 -72 -2 -6 3 -14 11 -17
9 -3 11 0 6 9 -5 8 2 5 16 -6 13 -11 26 -21 28 -22 7 -4 -814 5 -1855 21 l-71
1 0 760 c-1 550 3 764 11 774 6 8 6 12 1 9 -6 -4 -10 9 -11 30 0 21 1 31 3 24
3 -6 9 -10 14 -7z m248 -214 c12 -11 32 -26 43 -33 21 -14 21 -14 -7 -14 -28
1 -87 45 -78 59 7 11 18 8 42 -12z m-1339 -195 c0 -3 -4 -8 -10 -11 -5 -3 -10
-1 -10 4 0 6 5 11 10 11 6 0 10 -2 10 -4z m65 -116 c-3 -5 -1 -10 6 -10 7 0
10 -3 6 -6 -9 -9 -28 6 -22 17 4 5 8 9 11 9 3 0 2 -4 -1 -10z m55 -84 c0 -3
-4 -8 -10 -11 -5 -3 -10 -1 -10 4 0 6 5 11 10 11 6 0 10 -2 10 -4z m-4980
-307 c35 -45 35 -67 -1 -33 -16 15 -27 30 -24 32 3 3 0 11 -6 19 -6 7 -8 13
-3 13 5 0 20 -14 34 -31z m7088 -46 c15 -15 31 -27 35 -25 5 1 6 -2 3 -7 -4
-5 2 -11 11 -13 16 -3 16 -5 -3 -16 -18 -10 -21 -9 -20 6 0 9 -3 17 -9 17 -17
1 -75 48 -69 57 9 14 24 9 52 -19z m-6999 -74 c-10 -6 -10 -9 -1 -9 6 0 12 -4
12 -8 0 -15 -27 -9 -37 7 -8 13 -5 16 15 18 18 1 21 -1 11 -8z m5186 -69 c-3
-5 -12 -10 -18 -10 -7 0 -6 4 3 10 19 12 23 12 15 0z m-4961 -148 c-13 -8 1
-25 26 -30 8 -2 17 -8 18 -13 2 -5 11 -9 20 -10 13 0 13 -2 -3 -8 -11 -5 -25
-5 -31 0 -6 5 -15 5 -19 1 -5 -4 -5 -2 -2 4 4 6 -2 19 -13 29 -25 22 -25 35
-2 35 11 0 13 -3 6 -8z m5125 -125 c6 -8 8 -17 4 -20 -3 -4 -1 -7 6 -7 7 0 9
-5 6 -10 -6 -10 -45 29 -45 44 0 11 17 6 29 -7z m-4099 -376 c0 -6 8 -8 18 -6
26 5 23 -21 -4 -34 -17 -7 -25 -6 -34 4 -6 8 -19 11 -28 8 -10 -4 -6 3 8 15
27 23 40 27 40 13z m4345 -41 c-3 -5 1 -11 7 -13 8 -4 9 -6 2 -6 -14 -1 -37
26 -40 46 -2 12 1 11 17 -2 10 -10 16 -21 14 -25z m-4138 -45 c0 -8 -4 -12 -9
-9 -5 3 -6 10 -3 15 9 13 12 11 12 -6z m43 9 c0 -8 -19 -13 -24 -6 -3 5 1 9 9
9 8 0 15 -2 15 -3z m555 -14 c-4 -6 -2 -17 5 -25 10 -12 3 -14 -28 -6 -5 2 18
41 24 41 3 0 2 -5 -1 -10z m4572 -55 c0 -8 -4 -12 -9 -9 -5 3 -6 10 -3 15 9
13 12 11 12 -6z m-40 -10 c0 -8 -4 -12 -9 -9 -5 3 -6 10 -3 15 9 13 12 11 12
-6z m143 -7 c0 -4 -4 -8 -9 -8 -6 0 -12 4 -15 8 -3 5 1 9 9 9 8 0 15 -4 15 -9z
m1370 7 c0 -2 -9 -9 -19 -15 -14 -7 -22 -7 -27 2 -4 6 -3 8 2 5 6 -3 16 -2 24
4 17 10 20 11 20 4z"/>
<path d="M752 4906 c4 -5 3 -15 -3 -23 -9 -10 -8 -13 5 -13 9 0 16 -6 16 -12
0 -9 4 -8 10 2 9 13 10 13 10 0 0 -10 3 -11 8 -4 4 6 15 10 25 8 9 -1 15 2 11
7 -3 5 -1 9 5 9 5 0 11 -6 14 -12 2 -7 3 -5 2 4 -2 10 2 21 7 25 7 3 8 1 4 -5
-4 -7 -3 -12 3 -12 6 0 8 -8 5 -17 -5 -14 -4 -15 4 -4 8 11 10 11 14 0 3 -9 6
-8 11 5 4 9 3 15 -2 11 -5 -3 -13 0 -17 7 -4 7 -4 10 1 6 4 -4 15 -2 23 5 13
9 14 9 8 0 -4 -7 -3 -13 1 -13 5 0 15 6 22 13 11 10 13 10 7 0 -5 -8 -1 -13
10 -13 12 0 14 3 6 13 -12 14 -164 18 -178 4 -4 -4 -14 -1 -23 5 -9 7 -13 8
-9 4z m78 -21 c-11 -14 -55 -14 -67 -1 -4 5 -3 6 4 2 6 -3 14 -3 17 2 2 4 16
8 30 8 18 0 22 -3 16 -11z"/>
<path d="M975 4893 c6 -17 -32 -37 -38 -20 -4 9 -6 9 -6 -1 -1 -7 -5 -10 -11
-7 -5 3 -10 1 -10 -5 0 -10 29 -8 62 5 11 4 18 1 21 -12 3 -10 4 -3 2 15 -2
18 1 30 6 26 5 -3 7 -9 4 -13 -2 -5 2 -17 11 -27 14 -18 14 -17 3 5 -10 21 -9
23 6 18 9 -4 19 -7 21 -7 3 0 2 -6 -2 -12 -6 -10 -5 -10 8 -1 8 7 18 10 22 6
4 -4 4 1 0 12 -7 18 -7 18 22 -1 26 -18 35 -20 60 -15 4 0 0 9 -7 18 -11 13
-11 15 -1 9 7 -4 18 -18 23 -30 9 -20 9 -20 5 2 -3 15 0 22 7 19 7 -2 12 -9
12 -15 0 -5 4 -14 8 -19 5 -4 7 -2 5 6 -2 7 3 16 11 19 9 3 11 0 6 -8 -5 -8
-4 -11 3 -6 6 3 9 15 7 26 -2 12 0 18 6 15 5 -4 9 -13 9 -21 0 -10 5 -9 20 6
11 11 20 22 20 24 0 1 -18 3 -40 2 -27 -1 -39 -5 -36 -13 3 -7 0 -15 -6 -19
-6 -4 -8 -3 -5 3 4 6 -1 17 -10 24 -13 11 -17 11 -20 2 -3 -7 -9 -13 -14 -13
-6 0 -8 4 -5 8 2 4 -18 8 -45 7 -44 0 -54 -5 -50 -27 0 -4 -7 -4 -16 -1 -11 4
-13 8 -5 11 26 8 10 19 -28 18 -28 -1 -39 -5 -35 -13z m160 -2 c-3 -2 0 -9 5
-16 16 -19 -18 -14 -35 5 -13 14 -12 16 10 16 13 0 22 -2 20 -5z"/>
<path d="M1335 4899 c5 -7 52 -6 59 2 3 2 -10 5 -29 5 -18 0 -32 -3 -30 -7z"/>
<path d="M1429 4892 c-15 -13 -19 -21 -10 -26 6 -4 10 -3 9 3 -2 5 6 17 17 25
11 8 17 16 14 16 -4 0 -17 -8 -30 -18z"/>
<path d="M3010 4879 c18 -15 39 -26 48 -24 10 2 19 4 21 4 2 1 -3 9 -10 18
-11 13 -11 15 -1 9 7 -4 18 -18 23 -30 9 -20 9 -20 5 2 -3 15 0 22 7 19 7 -2
12 -9 12 -14 0 -6 4 -15 8 -20 5 -4 7 -2 5 6 -1 7 3 16 11 19 10 3 11 0 5 -9
-6 -11 -5 -12 8 -2 8 7 19 9 23 5 5 -4 5 -1 1 6 -9 14 3 16 24 2 12 -8 12 -10
1 -10 -8 0 -11 -3 -8 -6 4 -4 13 -2 20 4 8 7 17 9 21 5 4 -4 4 1 0 11 -7 18
-6 18 21 0 31 -20 58 -27 49 -13 -3 5 1 9 10 9 8 0 16 -3 19 -7 2 -5 2 -2 1 5
-2 6 1 12 6 12 6 0 10 -6 10 -14 0 -8 4 -17 8 -20 12 -7 7 43 -6 56 -8 8 -15
6 -27 -6 -15 -14 -35 -14 -35 0 0 3 4 3 9 -1 5 -3 12 -2 15 3 2 4 -18 8 -45 7
-44 0 -54 -5 -50 -27 0 -4 -7 -4 -16 -1 -11 4 -13 8 -5 11 26 8 10 19 -28 18
-27 -1 -39 -5 -36 -13 3 -7 0 -15 -6 -19 -6 -4 -8 -3 -5 3 4 6 -1 17 -10 24
-13 11 -17 11 -20 2 -3 -7 -9 -13 -14 -13 -6 0 -8 4 -5 8 2 4 -18 8 -46 7
l-50 0 32 -26z m45 12 c-3 -2 0 -9 5 -16 16 -19 -18 -14 -35 5 -13 14 -12 16
10 16 13 0 22 -2 20 -5z m125 4 c0 -2 -6 -8 -13 -14 -10 -8 -14 -7 -14 2 0 8
6 14 14 14 7 0 13 -1 13 -2z m111 -12 c7 -7 7 -13 1 -17 -5 -3 -17 3 -27 13
-15 17 -15 19 -1 17 9 -1 21 -7 27 -13z"/>
<path d="M3396 4898 c3 -5 10 -6 15 -3 13 9 11 12 -6 12 -8 0 -12 -4 -9 -9z"/>
<path d="M3533 4895 c0 -8 4 -12 9 -9 5 3 6 10 3 15 -9 13 -12 11 -12 -6z"/>
<path d="M3583 4893 c0 -7 4 -13 9 -13 5 0 6 -5 2 -12 -4 -6 -3 -8 4 -4 5 3
12 1 14 -6 3 -7 7 -5 11 6 4 9 3 15 -2 11 -5 -3 -13 0 -17 7 -4 7 -4 10 1 6 4
-4 15 -2 23 5 13 9 14 9 8 0 -4 -7 -3 -13 1 -13 5 0 15 6 22 13 11 10 13 10 7
0 -4 -7 -3 -13 3 -13 6 0 8 -8 5 -17 -4 -11 -3 -14 3 -7 4 6 16 10 26 8 9 -1
15 2 11 7 -3 5 -1 9 5 9 5 0 11 -6 14 -12 2 -7 3 -5 2 4 -2 10 2 21 7 25 7 3
8 1 4 -5 -4 -7 -3 -12 3 -12 6 0 8 -8 5 -17 -5 -14 -4 -15 4 -4 8 11 10 11 14
0 3 -9 6 -8 11 5 4 9 3 15 -2 11 -5 -3 -13 0 -17 7 -4 7 -4 10 1 6 4 -4 15 -2
23 5 13 9 14 9 8 0 -4 -7 -3 -13 1 -13 5 0 15 6 22 13 11 10 13 10 7 0 -4 -7
-2 -13 4 -13 6 0 8 -5 4 -11 -4 -8 -9 -7 -15 2 -7 11 -9 11 -9 1 0 -7 -4 -10
-10 -7 -5 3 -10 1 -10 -4 0 -11 35 -10 46 2 4 4 13 -1 21 -11 11 -14 12 -14 7
-1 -8 24 37 34 54 12 7 -10 12 -12 12 -4 0 16 31 10 48 -9 11 -12 11 -11 1 9
-10 21 -9 23 6 18 9 -4 19 -7 21 -7 3 0 3 -4 0 -9 -4 -5 2 -8 11 -7 10 2 16 7
15 12 -2 5 -8 8 -14 6 -5 -1 -7 2 -3 8 3 5 0 8 -7 7 -7 -2 -10 -2 -5 0 19 11
3 20 -33 19 -27 -1 -39 -5 -36 -13 3 -7 0 -15 -6 -19 -6 -4 -8 -3 -5 3 4 6 0
16 -8 23 -11 10 -18 9 -31 -4 -14 -14 -34 -14 -34 0 0 3 4 3 9 -1 5 -3 12 -2
14 2 3 5 -61 8 -142 8 -112 0 -148 -3 -148 -12z m126 -10 c-6 -7 -15 -10 -20
-7 -13 8 -3 21 15 21 12 0 13 -4 5 -14z m271 12 c0 -2 -6 -8 -13 -14 -10 -8
-14 -7 -14 2 0 8 6 14 14 14 7 0 13 -1 13 -2z"/>
<path d="M4020 4898 c0 -4 10 -13 23 -19 12 -7 28 -19 35 -28 10 -14 11 -13 5
4 -6 17 -4 18 9 8 8 -7 18 -9 22 -5 10 10 30 9 37 -1 4 -5 16 -3 27 4 19 12
24 11 37 -6 16 -19 16 -19 5 3 -13 26 4 31 19 5 6 -10 11 -12 11 -5 0 6 5 12
11 12 5 0 7 -5 3 -12 -4 -6 -3 -8 4 -4 6 3 9 15 7 26 -2 12 0 18 6 15 5 -4 9
-16 9 -28 0 -20 2 -19 15 7 8 15 15 29 15 30 0 1 -16 2 -35 2 -24 0 -34 -4
-31 -13 3 -7 0 -15 -6 -19 -6 -4 -8 -3 -5 3 4 6 0 16 -8 23 -11 10 -18 9 -31
-4 -14 -14 -34 -14 -34 0 0 3 4 3 9 -1 5 -3 12 -1 15 4 8 13 -19 8 -37 -7 -12
-11 -17 -11 -24 1 -8 14 -113 19 -113 5z m110 -16 c6 -6 7 -10 4 -7 -4 3 -13
0 -20 -6 -8 -7 -14 -7 -19 1 -3 6 -10 8 -15 5 -4 -3 -13 1 -19 8 -8 11 -3 13
24 12 19 0 39 -6 45 -13z m44 -13 c-3 -5 -10 -7 -15 -3 -5 3 -7 10 -3 15 3 5
10 7 15 3 5 -3 7 -10 3 -15z"/>
<path d="M4096 4878 c3 -5 10 -6 15 -3 13 9 11 12 -6 12 -8 0 -12 -4 -9 -9z"/>
<path d="M4325 4893 c-13 -29 -14 -43 -4 -49 5 -3 8 0 7 8 -2 7 2 12 9 11 7
-2 10 6 8 19 -6 29 -11 32 -20 11z"/>
<path d="M3643 4873 c-17 -6 -17 -20 0 -20 8 0 14 6 14 14 0 7 -1 13 -1 12 -1
0 -7 -3 -13 -6z"/>
<path d="M3886 4862 c-3 -5 1 -9 9 -9 8 0 12 4 9 9 -3 4 -7 8 -9 8 -2 0 -6 -4
-9 -8z"/>
<path d="M4738 4705 c6 -11 10 -23 11 -27 1 -11 8 -14 14 -8 3 3 -3 16 -14 30
-14 18 -17 19 -11 5z"/>
<path d="M4832 4617 c-1 -15 5 -27 14 -31 9 -3 12 -11 8 -18 -4 -7 -4 -10 1
-6 5 5 14 -1 22 -12 14 -19 43 -28 43 -12 0 11 -16 34 -24 33 -20 -3 -24 1
-21 19 2 11 0 19 -5 17 -5 -1 -15 6 -22 16 -13 17 -14 16 -16 -6z m29 -24 c13
-16 12 -17 -3 -4 -17 13 -22 21 -14 21 2 0 10 -8 17 -17z m44 -51 c-3 -3 -11
0 -18 7 -9 10 -8 11 6 5 10 -3 15 -9 12 -12z"/>
<path d="M5043 4433 c-7 -3 -13 -9 -13 -15 0 -6 6 -5 15 2 14 12 15 10 11 -14
-4 -21 -2 -25 7 -18 15 12 48 12 41 0 -3 -5 -9 -6 -14 -3 -5 3 -11 1 -14 -4
-3 -5 8 -8 25 -7 26 2 29 0 15 -10 -15 -11 -15 -12 1 -19 22 -10 29 -12 46
-14 8 -1 7 -4 -3 -11 -11 -7 -11 -10 -2 -10 8 0 10 -5 6 -12 -5 -8 0 -7 11 2
17 14 18 13 11 -5 -6 -16 -5 -17 5 -8 9 9 9 16 1 25 -5 7 -10 16 -9 20 3 10
-90 88 -97 81 -3 -4 -12 0 -19 9 -6 9 -18 14 -24 11z m137 -100 c0 -2 -9 1
-20 7 -11 6 -20 8 -20 5 0 -4 -5 -3 -10 0 -6 4 -8 11 -5 16 5 8 55 -17 55 -28z"/>
<path d="M5210 4299 c0 -9 7 -19 15 -23 8 -3 12 -12 9 -19 -3 -8 2 -17 11 -21
9 -3 13 -2 10 4 -8 13 5 13 25 0 10 -6 11 -10 3 -10 -7 0 -13 -4 -13 -10 0 -5
6 -9 13 -7 6 1 11 -4 9 -11 -1 -8 2 -11 7 -8 5 3 12 -6 16 -21 6 -25 7 -26 17
-9 8 13 12 15 18 6 5 -9 9 -9 14 -1 4 6 2 11 -4 11 -6 0 -8 4 -5 10 3 6 -1 7
-10 4 -9 -4 -15 -3 -13 2 2 5 -21 31 -50 58 -28 27 -52 45 -52 40 0 -5 -5 -2
-10 6 -8 13 -10 13 -10 -1z m39 -23 c9 -11 9 -16 -1 -22 -7 -4 -10 -4 -6 1 4
4 3 14 -3 22 -6 7 -9 13 -6 13 2 0 10 -6 16 -14z m75 -75 c-2 -3 -12 3 -22 13
-16 17 -16 18 5 5 12 -7 20 -15 17 -18z"/>
<path d="M5198 4263 c7 -3 16 -2 19 1 4 3 -2 6 -13 5 -11 0 -14 -3 -6 -6z"/>
<path d="M5630 3940 c0 -5 5 -10 11 -10 5 0 8 -4 4 -9 -3 -5 -1 -12 4 -16 6
-3 8 -13 5 -23 -5 -14 -2 -13 11 3 9 11 21 19 26 17 6 -1 8 2 4 8 -3 6 -10 8
-15 5 -5 -3 -15 3 -22 15 -14 21 -28 27 -28 10z"/>
<path d="M5776 3814 c-9 -23 -2 -28 13 -10 7 8 8 17 3 20 -6 3 -13 -1 -16 -10z"/>
<path d="M5842 3753 c-8 -3 -4 -12 13 -25 14 -11 22 -24 19 -30 -4 -7 -2 -8 4
-4 7 4 12 2 12 -5 0 -18 10 -5 15 19 2 11 -3 26 -11 33 -8 6 -14 8 -14 4 0 -4
-6 -3 -12 2 -7 6 -19 8 -26 6z m42 -18 c5 0 10 -8 12 -17 3 -23 2 -23 -27 9
-13 14 -17 22 -9 17 8 -5 19 -9 24 -9z"/>
<path d="M5086 3345 c4 -9 9 -14 12 -11 2 3 13 1 23 -4 14 -8 21 -6 29 11 11
19 10 20 -9 9 -15 -7 -27 -8 -41 0 -16 9 -18 8 -14 -5z"/>
<path d="M7142 3351 c-11 -7 -11 -9 0 -14 9 -3 15 1 15 9 0 8 -1 14 -1 14 -1
0 -7 -4 -14 -9z"/>
<path d="M7622 3351 c-11 -7 -11 -9 0 -14 9 -3 15 1 15 9 0 8 -1 14 -1 14 -1
0 -7 -4 -14 -9z"/>
<path d="M3953 3346 c-4 -5 -1 -6 5 -2 7 4 12 2 12 -5 0 -7 3 -9 6 -6 4 3 15
2 25 -3 14 -8 20 -6 28 8 8 15 5 17 -31 17 -22 0 -42 -4 -45 -9z m62 -6 c3 -6
-1 -7 -9 -4 -18 7 -21 14 -7 14 6 0 13 -4 16 -10z"/>
<path d="M4655 3347 c-12 -9 -14 -16 -7 -21 6 -3 16 3 22 14 13 24 10 25 -15
7z"/>
<path d="M4913 3346 c-4 -5 -1 -6 5 -2 7 4 12 2 12 -5 0 -7 3 -9 6 -6 4 3 15
2 25 -3 14 -8 20 -6 28 8 8 15 5 17 -31 17 -22 0 -42 -4 -45 -9z m62 -6 c3 -6
-1 -7 -9 -4 -18 7 -21 14 -7 14 6 0 13 -4 16 -10z"/>
<path d="M6750 2997 c0 -10 5 -15 10 -12 6 3 10 2 10 -4 0 -5 -3 -11 -7 -14
-5 -2 -3 -2 4 -1 7 2 15 -1 18 -6 4 -6 1 -10 -5 -10 -6 0 -8 -5 -4 -11 5 -8 9
-8 14 1 5 8 10 6 15 -7 5 -10 9 -21 9 -25 1 -3 5 -10 10 -15 5 -5 6 -3 2 5 -4
7 -1 12 9 12 9 0 14 -4 11 -8 -3 -5 6 -15 20 -22 16 -9 23 -19 19 -29 -4 -12
-2 -12 8 1 8 10 16 17 19 15 3 -1 -20 21 -50 50 -30 29 -58 51 -62 50 -4 -1
-17 9 -28 23 -18 21 -21 22 -22 7z m125 -101 c23 -23 25 -27 8 -17 -13 6 -23
16 -23 22 0 5 -11 14 -24 21 -14 6 -28 18 -31 26 -7 18 16 1 70 -52z"/>
<path d="M7055 2751 c-3 -6 -10 -9 -14 -7 -4 3 -8 -1 -8 -9 0 -8 5 -13 11 -12
5 1 10 -3 11 -10 0 -6 4 -15 9 -20 5 -5 6 -3 2 5 -4 7 -1 12 8 12 16 0 16 24
-1 41 -8 8 -13 8 -18 0z m19 -22 c-3 -5 -10 -7 -15 -3 -5 3 -7 10 -3 15 3 5
10 7 15 3 5 -3 7 -10 3 -15z"/>
<path d="M7221 2587 c-9 -11 -8 -17 4 -27 8 -7 15 -9 15 -5 0 4 7 2 15 -5 9
-7 13 -20 10 -29 -3 -9 5 -5 16 9 20 23 21 23 15 4 -5 -15 -2 -24 9 -28 10 -3
13 -11 9 -18 -6 -10 -5 -11 8 -1 15 13 28 8 28 -9 0 -5 -4 -6 -10 -3 -6 3 -7
-1 -3 -10 5 -13 7 -14 14 -3 6 10 11 9 23 -7 9 -11 16 -24 16 -28 0 -5 5 -5
10 -2 6 3 10 -1 10 -9 0 -8 9 -18 20 -21 11 -3 20 -14 21 -23 0 -14 2 -14 8 2
8 21 20 10 16 -15 -2 -12 4 -14 27 -11 27 4 28 5 12 23 -9 10 -20 16 -25 13
-4 -2 -18 9 -30 25 -14 19 -27 27 -37 23 -10 -3 -13 -1 -8 6 4 8 2 10 -8 6
-14 -5 -43 31 -38 48 1 4 -7 10 -18 13 -11 4 -17 11 -14 17 4 7 2 8 -4 4 -6
-3 -16 3 -22 15 -7 11 -14 18 -18 15 -3 -4 -18 5 -32 19 -23 22 -29 24 -39 12z
m40 -24 c22 -25 22 -26 2 -9 -13 11 -23 16 -23 12 0 -4 -5 -4 -10 -1 -6 4 -8
11 -5 16 8 13 8 12 36 -18z m60 -50 c13 -16 12 -17 -3 -4 -10 7 -18 15 -18 17
0 8 8 3 21 -13z m116 -90 c-4 -3 1 -12 11 -20 15 -13 15 -13 -6 -3 -19 9 -23
30 -5 30 4 0 3 -3 0 -7z m67 -51 c3 -5 -1 -9 -9 -9 -8 0 -12 4 -9 9 3 4 7 8 9
8 2 0 6 -4 9 -8z"/>
<path d="M7528 2321 c12 -10 18 -21 14 -25 -4 -4 0 -6 8 -4 8 2 18 8 22 13 5
6 8 6 8 -2 0 -7 -8 -17 -17 -23 -16 -10 -16 -11 -1 -6 19 5 42 -16 30 -29 -4
-5 -2 -5 5 -1 6 3 14 2 18 -3 3 -6 13 -7 22 -4 11 5 14 3 9 -6 -5 -8 0 -18 13
-27 12 -9 19 -20 16 -25 -4 -5 -1 -9 4 -9 6 0 11 5 11 10 0 6 5 10 11 10 5 0
7 -4 4 -10 -3 -5 1 -10 10 -10 11 0 15 -5 12 -15 -8 -18 13 -32 23 -15 5 8 9
7 13 -4 4 -9 1 -16 -5 -16 -6 0 -9 -2 -6 -5 3 -3 13 -3 22 1 16 6 16 8 0 25
-9 10 -20 16 -25 14 -4 -3 -10 4 -14 14 -3 11 -14 23 -24 26 -11 3 -21 15 -25
27 -3 12 -8 19 -12 15 -10 -10 -65 33 -58 45 4 7 2 8 -4 4 -6 -3 -16 2 -22 13
-6 11 -16 18 -24 15 -7 -3 -19 2 -26 11 -7 8 -17 15 -23 15 -5 0 0 -8 11 -19z
m82 -56 c13 -14 21 -25 18 -25 -2 0 -15 11 -28 25 -13 14 -21 25 -18 25 2 0
15 -11 28 -25z m65 -43 c-3 -3 0 -11 6 -19 17 -20 5 -16 -14 5 -15 16 -15 19
-2 19 8 0 13 -3 10 -5z"/>
<path d="M7790 2066 c0 -2 7 -7 16 -10 8 -3 12 -2 9 4 -6 10 -25 14 -25 6z"/>
<path d="M8094 1848 c-3 -4 1 -15 10 -23 11 -11 16 -12 19 -2 4 8 6 6 6 -4 1
-9 12 -21 26 -27 17 -8 23 -17 18 -29 -5 -15 -3 -15 11 2 13 16 15 17 10 3 -4
-11 -1 -18 6 -18 6 0 8 -4 5 -10 -3 -5 -1 -10 4 -10 6 0 11 5 11 12 0 17 11 3
14 -19 2 -11 10 -17 22 -15 15 3 16 2 4 -12 -12 -15 -10 -16 15 -6 24 9 26 9
16 -4 -7 -9 -11 -21 -8 -28 3 -8 6 -5 6 6 1 15 4 16 16 6 8 -7 12 -17 8 -23
-3 -6 -1 -7 5 -3 7 4 12 1 12 -6 0 -9 3 -9 10 2 8 12 10 11 10 -7 0 -13 5 -23
10 -23 6 0 12 0 15 0 3 0 5 3 4 8 -1 4 -6 6 -12 4 -6 -2 -4 4 3 13 7 9 9 15 4
13 -5 -1 -25 12 -44 30 -19 18 -40 32 -46 32 -6 0 -16 10 -23 23 -7 13 -9 15
-6 4 3 -10 -18 7 -46 38 -29 30 -54 53 -58 50 -3 -3 1 -10 9 -15 10 -6 11 -10
3 -10 -12 0 -39 39 -36 51 3 9 -27 7 -33 -3z m231 -178 c10 -11 16 -20 13 -20
-3 0 -13 9 -23 20 -10 11 -16 20 -13 20 3 0 13 -9 23 -20z"/>
<path d="M8400 1616 c0 -2 8 -10 18 -17 15 -13 16 -12 3 4 -13 16 -21 21 -21
13z"/>
<path d="M8450 1576 c0 -2 8 -10 18 -17 15 -13 16 -12 3 4 -13 16 -21 21 -21
13z"/>
<path d="M8514 1497 c0 -32 2 -34 31 -31 29 3 29 3 10 -13 -14 -11 -15 -14 -4
-10 9 3 22 0 29 -6 10 -9 11 -9 4 3 -5 8 -9 17 -9 20 0 3 -14 20 -30 38 l-31
33 0 -34z m21 4 c3 -5 2 -12 -3 -15 -5 -3 -9 1 -9 9 0 17 3 19 12 6z"/>
<path d="M6980 2805 c19 -14 36 -25 39 -25 10 0 -53 49 -63 50 -6 0 5 -11 24
-25z"/>
<path d="M785 2100 c10 -11 20 -20 23 -20 3 0 -3 9 -13 20 -10 11 -20 20 -23
20 -3 0 3 -9 13 -20z"/>
<path d="M7831 2088 c2 -2 17 -14 32 -28 21 -18 26 -20 21 -7 -6 17 -34 37
-50 37 -4 0 -5 -1 -3 -2z"/>
<path d="M1120 1746 c0 -2 8 -10 18 -17 15 -13 16 -12 3 4 -13 16 -21 21 -21
13z"/>
<path d="M2107 1273 c-4 -3 -2 -12 4 -19 12 -14 39 -8 39 9 0 6 -3 7 -7 4 -3
-4 -11 -2 -18 3 -7 5 -15 7 -18 3z"/>
<path d="M6734 4662 c2 -8 10 -20 19 -27 9 -7 13 -16 9 -20 -4 -5 -2 -5 5 -1
6 3 10 15 8 26 -2 11 1 23 7 26 7 5 8 2 3 -6 -5 -9 -4 -11 3 -6 7 4 29 -6 49
-21 21 -15 32 -20 25 -11 -9 11 -10 18 -2 23 5 3 10 2 10 -3 0 -5 9 -12 20
-15 11 -3 18 -1 14 4 -3 5 2 9 10 9 10 0 13 6 10 18 -5 15 -4 15 6 -1 9 -14 9
-22 -2 -35 -12 -15 -11 -16 4 -4 9 8 22 11 28 7 5 -3 10 -1 10 6 0 9 4 9 15
-1 12 -10 14 -8 10 12 -4 21 -3 22 9 5 10 -13 16 -15 22 -6 5 9 11 7 22 -7 11
-15 13 -15 9 -2 -3 9 0 19 9 22 8 3 12 1 9 -4 -3 -5 -1 -18 4 -27 10 -17 10
-17 11 1 0 19 0 19 22 0 12 -10 18 -13 13 -5 -6 11 -4 13 9 8 9 -4 15 -3 12 2
-3 5 3 11 15 14 16 4 19 2 14 -16 -5 -16 -4 -18 3 -8 6 8 17 11 25 8 12 -4 14
-2 10 9 -5 14 -3 14 15 3 11 -7 18 -17 15 -23 -3 -5 -1 -6 5 -2 6 3 9 15 7 26
-2 11 1 23 7 26 7 5 8 2 3 -6 -6 -9 -4 -11 4 -6 7 5 21 0 32 -10 21 -19 32
-14 34 14 1 15 -8 17 -59 17 -65 0 -90 -9 -80 -28 3 -7 -2 -3 -10 7 -19 24
-47 30 -39 10 7 -18 -11 -18 -26 0 -12 15 -28 16 -48 3 -6 -4 -14 -3 -17 2 -7
10 -25 9 -42 -2 -6 -3 -14 -3 -18 1 -4 4 -27 7 -51 7 -30 1 -41 -3 -38 -12 6
-15 -48 -13 -59 2 -4 5 -31 10 -61 10 -43 1 -54 -2 -53 -13z m21 -2 c-3 -5 -1
-10 6 -10 7 0 10 -3 6 -6 -9 -9 -28 6 -22 17 4 5 8 9 11 9 3 0 2 -4 -1 -10z
m79 -1 c-2 -4 2 -10 8 -12 8 -4 9 -6 2 -6 -6 -1 -17 5 -23 12 -8 10 -7 14 4
14 8 0 12 -4 9 -8z m153 -5 c0 -6 -10 -10 -21 -9 -28 3 -28 3 -21 14 8 13 42
9 42 -5z m131 3 c7 -5 10 -13 6 -18 -4 -6 -10 -6 -18 0 -7 6 -15 9 -18 6 -2
-3 -5 1 -5 9 0 15 14 16 35 3z m116 1 c-3 -4 0 -8 7 -8 7 0 9 -3 6 -6 -4 -4
-13 -2 -20 4 -8 7 -18 8 -22 4 -5 -4 -5 -2 -2 4 3 6 13 11 21 11 8 0 13 -4 10
-9z m80 1 c-2 -4 2 -10 8 -12 8 -4 9 -6 2 -6 -6 -1 -17 5 -23 12 -8 10 -7 14
4 14 8 0 12 -4 9 -8z"/>
<path d="M7411 4659 c5 -10 6 -26 3 -36 -4 -14 -4 -15 4 -4 5 7 15 10 21 7 6
-4 11 -2 11 5 0 7 8 5 22 -7 13 -12 18 -13 13 -4 -5 8 -10 22 -12 30 -1 11 2
10 12 -3 9 -13 15 -15 21 -6 5 9 11 7 22 -7 10 -13 13 -14 9 -3 -6 18 20 37
46 33 9 -1 15 1 12 6 -6 9 -24 8 -42 -3 -6 -4 -14 -3 -17 2 -7 10 -25 9 -42
-2 -6 -3 -14 -3 -18 1 -4 4 -23 7 -41 7 -29 1 -32 -2 -24 -16z m56 -5 c0 -6
-10 -10 -21 -9 -28 3 -28 3 -21 14 8 13 42 9 42 -5z"/>
<path d="M7686 4672 c-3 -5 1 -9 9 -9 8 0 12 4 9 9 -3 4 -7 8 -9 8 -2 0 -6 -4
-9 -8z"/>
<path d="M7761 4672 c-6 -2 -1 -12 14 -24 28 -21 38 -19 40 10 1 17 -24 24
-54 14z m33 -13 c-2 -4 2 -10 8 -12 8 -4 9 -6 2 -6 -6 -1 -17 5 -23 12 -8 10
-7 14 4 14 8 0 12 -4 9 -8z"/>
<path d="M7891 4659 c5 -10 6 -26 3 -36 -4 -14 -4 -15 4 -4 5 7 15 10 21 7 6
-4 11 -2 11 5 0 7 8 5 22 -7 13 -12 18 -13 13 -4 -5 8 -10 22 -12 30 -1 12 1
11 11 -2 15 -20 27 -14 19 10 -3 10 5 4 17 -13 18 -25 20 -26 15 -7 -9 30 1
28 19 -5 12 -22 15 -24 16 -9 0 19 0 19 22 0 19 -15 20 -16 9 -1 -15 20 -2 23
18 5 8 -8 11 -8 8 -2 -4 7 2 14 14 17 16 4 19 2 14 -16 -5 -16 -4 -18 3 -8 6
8 17 11 25 8 12 -4 14 -2 10 9 -5 14 -3 14 15 3 11 -7 18 -17 15 -23 -3 -5 -1
-6 5 -2 6 3 9 15 7 26 -2 11 1 23 7 26 7 5 8 2 3 -6 -6 -9 -4 -11 4 -6 7 5 21
0 32 -10 21 -19 32 -14 34 14 1 15 -8 17 -59 17 -65 0 -90 -9 -80 -28 3 -7 -2
-3 -10 7 -19 24 -47 30 -39 10 7 -18 -11 -18 -26 0 -12 15 -28 16 -48 3 -6 -4
-14 -3 -17 2 -7 10 -25 9 -42 -2 -6 -3 -14 -3 -18 1 -4 4 -23 7 -41 7 -29 1
-32 -2 -24 -16z m56 -5 c0 -6 -10 -10 -21 -9 -28 3 -28 3 -21 14 8 13 42 9 42
-5z m126 0 c-3 -9 -23 -13 -36 -6 -4 2 -5 7 -2 12 7 11 41 6 38 -6z m121 4
c-3 -4 0 -8 7 -8 7 0 9 -3 6 -6 -4 -4 -13 -2 -20 4 -8 7 -18 8 -22 4 -5 -4 -5
-2 -2 4 3 6 13 11 21 11 8 0 13 -4 10 -9z m80 1 c-2 -4 2 -10 8 -12 8 -4 9 -6
2 -6 -6 -1 -17 5 -23 12 -8 10 -7 14 4 14 8 0 12 -4 9 -8z"/>
<path d="M8371 4659 c5 -10 6 -26 3 -36 -4 -14 -4 -15 4 -4 5 7 15 10 21 7 6
-4 11 -2 11 5 0 7 8 5 22 -7 13 -12 18 -13 13 -4 -5 8 -10 22 -12 30 -1 11 2
10 12 -3 9 -13 15 -15 21 -6 5 9 11 7 22 -7 11 -15 13 -15 9 -2 -3 9 0 19 9
22 8 3 12 1 9 -4 -3 -5 -1 -18 4 -27 10 -17 10 -17 11 1 0 19 0 19 22 0 12
-10 18 -13 13 -5 -6 11 -4 13 9 8 10 -4 15 -3 11 3 -3 6 0 10 7 10 8 0 14 8
14 18 0 10 -6 19 -12 19 -7 0 -10 -6 -7 -14 7 -17 -11 -17 -26 1 -12 15 -28
16 -48 3 -6 -4 -14 -3 -17 2 -7 10 -25 9 -42 -2 -6 -3 -14 -3 -18 1 -4 4 -23
7 -41 7 -29 1 -32 -2 -24 -16z m56 -5 c0 -6 -10 -10 -21 -9 -28 3 -28 3 -21
14 8 13 42 9 42 -5z m131 3 c7 -5 10 -13 6 -18 -4 -6 -10 -6 -18 0 -7 6 -15 9
-18 6 -2 -3 -5 1 -5 9 0 15 14 16 35 3z"/>
<path d="M8633 4663 c0 -8 5 -9 11 -4 6 5 19 7 28 6 10 -2 20 0 22 4 3 4 -10
7 -28 7 -20 0 -33 -5 -33 -13z"/>
<path d="M6790 4644 c0 -3 7 -12 15 -20 16 -17 18 -14 9 10 -6 15 -24 23 -24
10z"/>
<path d="M7270 4640 c0 -5 5 -10 11 -10 5 0 7 -5 3 -12 -4 -7 -3 -8 4 -4 6 4
9 13 5 21 -6 17 -23 20 -23 5z"/>
<path d="M8230 4640 c0 -5 5 -10 11 -10 5 0 7 -5 3 -12 -4 -7 -3 -8 4 -4 6 4
9 13 5 21 -6 17 -23 20 -23 5z"/>
<path d="M2982 3351 c-10 -6 -10 -10 3 -21 12 -10 13 -16 3 -29 -12 -14 -11
-14 5 -2 9 7 17 10 17 6 0 -4 7 -1 17 6 20 17 17 18 44 -6 12 -11 19 -14 15
-7 -4 6 -2 12 3 12 6 0 3 8 -6 18 -14 14 -20 15 -26 6 -9 -16 -34 -12 -49 9
-8 10 -18 14 -26 8z m28 -26 c14 -19 14 -19 -2 -6 -10 7 -18 18 -18 24 0 6 1
8 3 6 1 -2 9 -13 17 -24z"/>
<path d="M3243 3351 c-4 -3 -9 -19 -10 -36 -2 -26 -1 -27 9 -11 8 15 12 16 20
5 8 -11 9 -10 4 4 -3 9 -2 17 3 17 4 0 8 6 8 13 0 14 -20 18 -34 8z m8 -24
c-10 -9 -11 -8 -5 6 3 10 9 15 12 12 3 -3 0 -11 -7 -18z"/>
<path d="M3440 3353 c0 -1 8 -7 18 -12 13 -7 19 -6 19 2 0 7 -9 13 -19 13 -10
0 -18 -1 -18 -3z"/>
<path d="M3519 3358 c-9 -33 -7 -50 6 -45 8 4 17 2 20 -3 3 -5 12 -7 20 -4 11
5 10 9 -3 23 -15 15 -18 15 -29 1 -10 -13 -11 -11 -6 8 3 12 3 22 -1 22 -3 0
-6 -1 -7 -2z"/>
<path d="M3723 3351 c-4 -3 -9 -19 -10 -36 -2 -26 -1 -27 9 -11 8 15 12 16 20
5 8 -11 9 -10 4 4 -3 9 -2 17 3 17 4 0 8 6 8 13 0 14 -20 18 -34 8z m8 -24
c-10 -9 -11 -8 -5 6 3 10 9 15 12 12 3 -3 0 -11 -7 -18z"/>
<path d="M6806 3352 c-9 -15 19 -33 39 -25 14 5 16 3 10 -7 -5 -8 -4 -11 3 -6
5 3 13 0 15 -6 4 -10 6 -10 6 0 1 7 6 10 13 6 7 -4 8 -3 4 5 -4 6 -12 9 -17 6
-5 -4 -12 1 -15 9 -3 9 -10 13 -15 10 -6 -3 -16 -1 -24 6 -8 6 -16 7 -19 2z"/>
<path d="M6923 3351 c-4 -3 -9 -18 -10 -33 l-2 -27 22 22 c12 12 22 26 23 33
2 11 -20 15 -33 5z m8 -24 c-10 -9 -11 -8 -5 6 3 10 9 15 12 12 3 -3 0 -11 -7
-18z"/>
<path d="M7199 3358 c-8 -30 -7 -49 3 -45 7 2 22 -3 32 -12 11 -9 16 -10 12
-3 -4 6 -2 12 3 12 6 0 3 8 -6 18 -16 16 -19 16 -30 2 -10 -13 -11 -11 -6 8 3
12 3 22 -1 22 -3 0 -6 -1 -7 -2z"/>
<path d="M7403 3351 c-4 -3 -9 -19 -10 -36 -2 -26 -1 -27 9 -11 8 15 12 16 20
5 8 -11 9 -10 4 4 -3 9 -2 17 3 17 4 0 8 6 8 13 0 14 -20 18 -34 8z m8 -24
c-10 -9 -11 -8 -5 6 3 10 9 15 12 12 3 -3 0 -11 -7 -18z"/>
<path d="M7679 3358 c-9 -33 -7 -50 6 -45 8 4 17 2 20 -3 3 -5 12 -7 20 -4 11
5 10 9 -3 23 -15 15 -18 15 -29 1 -10 -13 -11 -11 -6 8 3 12 3 22 -1 22 -3 0
-6 -1 -7 -2z"/>
<path d="M7883 3351 c-4 -3 -9 -19 -10 -36 -2 -26 -1 -27 9 -11 8 15 12 16 20
5 8 -11 9 -10 4 4 -3 9 -2 17 3 17 4 0 8 6 8 13 0 14 -20 18 -34 8z m8 -24
c-10 -9 -11 -8 -5 6 3 10 9 15 12 12 3 -3 0 -11 -7 -18z"/>
<path d="M8363 3351 c-4 -3 -9 -19 -10 -36 -2 -26 -1 -27 9 -11 8 15 12 16 20
5 8 -11 9 -10 4 4 -3 9 -2 17 3 17 4 0 8 6 8 13 0 14 -20 18 -34 8z m8 -24
c-10 -9 -11 -8 -5 6 3 10 9 15 12 12 3 -3 0 -11 -7 -18z"/>
<path d="M8560 3353 c0 -1 8 -7 18 -12 13 -7 19 -6 19 2 0 7 -9 13 -19 13 -10
0 -18 -1 -18 -3z"/>
<path d="M8176 3334 c-3 -9 -10 -12 -16 -9 -5 3 -10 1 -10 -5 0 -7 6 -10 13
-7 6 2 21 -3 31 -12 11 -9 16 -11 13 -4 -4 6 -4 13 1 15 4 1 0 11 -9 20 -15
14 -18 14 -23 2z"/>
<path d="M5190 3323 c6 -14 16 -20 25 -17 8 4 12 11 8 17 -5 8 -8 7 -11 -2 -3
-8 -8 -7 -19 6 -13 17 -13 16 -3 -4z"/>
<path d="M8630 3320 c0 -6 4 -9 9 -5 5 3 12 -2 14 -10 4 -12 5 -12 3 1 -1 19
-26 32 -26 14z"/>
<path d="M3430 3311 c0 -5 7 -12 16 -15 14 -5 15 -4 4 9 -14 17 -20 19 -20 6z"/>
<path d="M8550 3311 c0 -5 7 -12 16 -15 14 -5 15 -4 4 9 -14 17 -20 19 -20 6z"/>
<path d="M5247 3244 c7 -3 9 -13 6 -22 -4 -14 -3 -14 5 -2 12 16 7 30 -11 29
-9 0 -9 -2 0 -5z"/>
<path d="M5270 3202 c0 -5 7 -9 15 -9 8 0 12 4 9 9 -3 4 -9 8 -15 8 -5 0 -9
-4 -9 -8z"/>
<path d="M5333 3105 c0 -8 7 -15 15 -15 12 0 12 3 2 15 -7 8 -13 15 -15 15 -1
0 -2 -7 -2 -15z"/>
<path d="M5380 3001 c0 -5 8 -8 18 -7 11 1 16 -5 14 -16 -2 -10 1 -18 7 -18
10 0 9 19 -2 38 -9 14 -37 17 -37 3z"/>
<path d="M5430 2950 c-12 -8 -12 -10 3 -16 9 -3 14 -11 10 -17 -3 -6 -1 -7 6
-3 8 6 9 12 2 20 -6 7 -8 16 -4 19 9 10 0 8 -17 -3z"/>
<path d="M5456 2901 c-4 -5 -2 -12 3 -15 5 -4 12 -2 15 3 4 5 2 12 -3 15 -5 4
-12 2 -15 -3z"/>
<path d="M5465 2860 c3 -5 8 -10 11 -10 2 0 4 5 4 10 0 6 -5 10 -11 10 -5 0
-7 -4 -4 -10z"/>
<path d="M5575 2681 c-3 -6 3 -9 14 -8 11 0 17 5 15 9 -7 11 -22 10 -29 -1z"/>
<path d="M5597 2649 c7 -7 15 -10 18 -7 3 3 -2 9 -12 12 -14 6 -15 5 -6 -5z"/>
<path d="M5679 2523 c-13 -16 -12 -17 4 -4 16 13 21 21 13 21 -2 0 -10 -8 -17
-17z"/>
<path d="M5716 2462 c-2 -4 -1 -14 5 -22 6 -11 9 -12 9 -2 0 8 5 10 13 6 8 -5
8 -2 -2 9 -15 19 -18 20 -25 9z"/>
<path d="M5770 2371 c0 -5 7 -15 17 -22 15 -13 15 -12 4 9 -12 23 -21 28 -21
13z"/>
<path d="M5815 2304 c14 -15 23 -30 20 -34 -3 -4 2 -13 10 -20 8 -7 12 -17 8
-23 -3 -6 -1 -7 6 -3 9 6 9 11 0 22 -6 8 -8 14 -5 14 4 0 -5 16 -20 35 -14 19
-30 35 -35 35 -4 0 3 -12 16 -26z"/>
<path d="M5887 2180 c3 -11 9 -20 15 -20 5 0 4 9 -2 20 -6 11 -12 20 -14 20
-2 0 -2 -9 1 -20z"/>
<path d="M5895 2140 c-4 -6 1 -7 11 -3 13 5 15 3 9 -7 -5 -8 -4 -11 2 -7 14 9
24 -17 17 -40 -5 -17 -5 -17 5 -1 8 12 8 24 -1 42 -11 26 -32 34 -43 16z"/>
<path d="M960 1896 c0 -2 8 -10 18 -17 15 -13 16 -12 3 4 -13 16 -21 21 -21
13z"/>
<path d="M1042 1764 c10 -10 20 -16 22 -13 3 3 -5 11 -17 18 -21 13 -21 12 -5
-5z"/>
<path d="M6130 1769 c0 -5 5 -7 10 -4 6 3 10 8 10 11 0 2 -4 4 -10 4 -5 0 -10
-5 -10 -11z"/>
<path d="M6140 1739 c0 -5 5 -7 10 -4 6 3 10 8 10 11 0 2 -4 4 -10 4 -5 0 -10
-5 -10 -11z"/>
<path d="M1270 1622 c0 -7 5 -12 11 -12 5 0 7 -4 4 -10 -4 -6 1 -7 11 -3 14 5
15 3 4 -17 -8 -16 -9 -20 -1 -15 7 4 18 1 26 -5 8 -7 15 -10 15 -6 0 3 8 -2
18 -11 11 -10 17 -22 14 -28 -3 -5 1 -4 9 3 16 15 33 16 23 0 -4 -7 -3 -8 5
-4 6 4 8 13 4 19 -4 7 -8 17 -8 22 0 6 -4 10 -10 10 -5 1 -20 6 -32 13 -13 7
-23 10 -23 6 0 -3 -7 -1 -15 6 -8 7 -12 17 -8 23 4 6 0 8 -9 4 -9 -3 -21 0
-27 6 -8 8 -11 8 -11 -1z m70 -47 c0 5 9 0 19 -9 11 -10 24 -15 30 -11 7 3 8
0 5 -9 -7 -17 -30 -11 -38 10 -3 9 -10 13 -15 10 -5 -3 -15 2 -22 12 -13 15
-12 16 4 3 9 -7 17 -10 17 -6z"/>
<path d="M1454 1518 c-4 -7 -4 -10 1 -6 4 4 15 2 24 -5 14 -11 14 -10 2 6 -16
20 -18 21 -27 5z"/>
<path d="M1554 1454 c-1 -15 2 -21 9 -17 6 4 8 0 5 -9 -5 -11 1 -15 20 -14 18
1 26 -4 24 -12 -1 -8 2 -11 8 -7 5 3 10 0 10 -7 0 -10 3 -9 10 2 8 12 10 12
16 -3 3 -9 10 -17 16 -17 5 0 6 5 3 10 -3 6 -2 10 2 10 5 0 14 -9 21 -20 15
-25 37 -27 27 -2 -5 14 -4 15 7 4 7 -7 13 -18 13 -25 0 -6 12 -13 28 -14 15
-1 27 3 27 8 0 6 -4 8 -9 4 -5 -3 -12 -2 -15 3 -3 5 2 9 10 9 9 0 21 -11 27
-24 5 -13 17 -22 26 -21 9 2 15 -3 14 -9 -2 -7 2 -13 7 -13 6 0 10 5 10 11 0
8 6 7 17 -2 11 -10 14 -10 9 -1 -5 8 -1 12 13 12 11 0 22 4 25 9 7 11 -37 9
-45 -3 -4 -5 -13 0 -20 12 -12 19 -14 19 -26 4 -12 -15 -12 -15 -7 3 5 16 4
17 -5 5 -6 -9 -11 -10 -11 -3 0 6 -7 19 -16 28 -13 12 -19 13 -30 4 -14 -12
-29 -6 -29 12 0 5 -3 9 -7 9 -5 0 -13 0 -19 0 -6 0 -8 -7 -5 -17 5 -11 -1 -9
-16 7 -13 14 -20 28 -15 31 9 7 -19 22 -43 23 -9 1 -27 8 -40 17 -14 8 -29 18
-35 21 -5 3 -11 -5 -11 -18z m90 -29 c11 0 20 -8 22 -18 2 -15 0 -16 -12 -6
-8 6 -14 8 -14 4 0 -5 -9 0 -19 9 -11 10 -25 15 -32 10 -8 -4 -10 -3 -5 4 4 7
2 12 -3 12 -6 0 -11 5 -11 10 0 6 12 2 27 -7 15 -10 36 -18 47 -18z"/>
<path d="M6300 1466 c0 -2 9 -6 20 -9 11 -3 18 -1 14 4 -5 9 -34 13 -34 5z"/>
<path d="M6350 1415 c0 -8 4 -15 10 -15 5 0 7 7 4 15 -4 8 -8 15 -10 15 -2 0
-4 -7 -4 -15z"/>
<path d="M6350 1380 c0 -6 7 -10 15 -10 8 0 15 2 15 4 0 2 -7 6 -15 10 -8 3
-15 1 -15 -4z"/>
<path d="M1933 1308 c-12 -6 -24 -17 -28 -26 -4 -12 -3 -13 10 -2 14 12 20 7
15 -15 -1 -5 4 -4 11 2 10 10 17 9 33 -5 16 -13 18 -13 8 -1 -6 9 -9 19 -5 23
4 4 13 -4 21 -16 7 -13 11 -15 8 -6 -3 10 0 20 6 24 7 5 8 2 3 -6 -5 -9 -4
-11 3 -6 8 5 10 2 6 -8 -3 -9 -1 -16 6 -16 6 0 8 5 5 10 -3 6 0 10 7 10 7 0 2
7 -10 16 -12 8 -26 13 -31 10 -5 -3 -14 1 -21 9 -14 17 -17 17 -47 3z m40 -11
c7 3 8 2 4 -2 -12 -13 -36 -15 -44 -3 -3 7 -1 8 5 4 7 -4 12 -1 13 6 0 10 2
10 6 0 2 -6 10 -9 16 -5z"/>
<path d="M6415 1299 c-4 -6 -5 -12 -2 -15 2 -3 7 2 10 11 7 17 1 20 -8 4z"/>
<path d="M9094 1298 c-4 -6 -3 -8 4 -4 5 3 12 1 14 -6 3 -8 6 -9 11 -1 4 6 0
13 -8 17 -8 3 -17 0 -21 -6z"/>
<path d="M4379 1261 c-1 -3 -1 -10 0 -15 1 -5 -6 -6 -16 -2 -17 6 -17 5 -1 -7
10 -8 14 -18 10 -23 -4 -4 0 -3 10 4 11 9 18 10 23 2 5 -8 10 -8 20 0 10 8 14
7 18 -2 3 -7 6 -4 6 8 1 12 -5 21 -14 21 -8 0 -12 -4 -9 -8 2 -4 -1 -11 -7
-14 -7 -5 -10 -1 -7 10 4 23 33 28 50 8 7 -9 13 -19 13 -22 0 -10 25 -10 31 0
3 6 11 5 20 -2 11 -9 15 -8 20 5 7 19 25 22 20 4 -1 -7 -1 -9 2 -5 2 4 10 2
18 -4 12 -9 18 -9 27 0 9 10 8 11 -8 5 -18 -7 -18 -6 -6 9 7 9 17 15 20 12 4
-2 8 1 8 8 0 8 -14 13 -33 13 -18 0 -30 -4 -28 -8 3 -4 0 -8 -5 -8 -6 0 -11 5
-11 11 0 8 -4 9 -13 0 -8 -6 -17 -8 -21 -3 -9 8 -135 11 -137 3z m31 -6 c0 -2
-6 -8 -13 -14 -10 -8 -14 -7 -14 2 0 8 6 14 14 14 7 0 13 -1 13 -2z m105 -7
c4 -4 12 -5 18 -4 7 2 9 1 4 -1 -4 -3 -4 -10 0 -16 5 -8 2 -8 -9 0 -8 7 -18
10 -22 6 -3 -4 -14 -8 -22 -9 -9 -1 -13 0 -10 3 3 4 1 12 -4 18 -7 9 -3 12 15
11 13 -1 27 -5 30 -8z m84 -5 c-6 -7 -15 -10 -20 -7 -13 8 -3 21 15 21 12 0
13 -4 5 -14z"/>
<path d="M4486 1238 c3 -5 10 -6 15 -3 13 9 11 12 -6 12 -8 0 -12 -4 -9 -9z"/>
<path d="M496 1235 c-10 -8 -24 -11 -30 -8 -6 4 -5 -1 3 -10 7 -9 17 -15 21
-12 4 3 13 -2 20 -10 7 -8 18 -15 24 -15 6 0 4 5 -4 10 -8 5 -12 10 -7 11 26
5 33 4 45 -5 9 -6 16 -6 20 0 10 14 31 11 43 -6 7 -11 8 -8 5 13 -3 15 -1 25
5 22 5 -4 9 -13 9 -21 0 -8 4 -14 10 -14 6 0 6 9 1 23 -7 19 -5 23 10 24 10 1
19 -3 19 -8 0 -6 -4 -7 -10 -4 -5 3 -10 1 -10 -5 0 -7 7 -9 16 -6 13 5 14 4 6
-7 -9 -10 -8 -14 3 -14 8 0 12 4 9 9 -5 8 11 12 31 8 5 -1 2 7 -8 18 -22 24
-98 24 -126 -2 -15 -13 -20 -14 -24 -4 -4 10 -6 10 -6 -1 -1 -10 -5 -11 -13
-3 -13 10 -18 12 -39 12 -5 0 -7 5 -4 10 8 13 4 12 -19 -5z m131 -8 c0 -8 -6
-14 -14 -14 -9 0 -10 4 -2 14 6 7 12 13 14 13 1 0 2 -6 2 -13z m-105 -11 c7 4
8 2 4 -5 -9 -13 -26 -5 -25 12 0 9 2 8 6 -1 2 -6 10 -9 15 -6z"/>
<path d="M2221 1233 c16 -27 26 -29 26 -8 0 8 -3 13 -5 10 -3 -3 -12 1 -20 8
-13 11 -14 9 -1 -10z"/>
<path d="M9011 1193 c-29 -36 -32 -53 -8 -53 7 0 6 4 -3 10 -10 6 -11 10 -2
10 6 0 12 7 12 15 0 8 5 15 11 15 5 0 8 -4 4 -9 -3 -5 -1 -12 4 -16 6 -3 8 4
6 16 -3 16 0 19 12 15 12 -5 13 -4 5 7 -7 8 -9 17 -5 20 3 4 4 7 0 7 -3 0 -19
-17 -36 -37z"/>
<path d="M2434 1185 c0 -13 4 -21 8 -19 4 3 8 1 8 -3 0 -5 9 -9 20 -10 11 -1
20 2 20 7 0 15 29 5 45 -16 15 -19 15 -19 8 1 -7 20 -7 20 22 1 17 -10 24 -13
18 -5 -21 21 -15 31 10 16 12 -8 29 -13 37 -12 8 0 18 -4 22 -10 5 -6 8 -4 8
5 0 13 1 13 10 0 7 -11 10 -11 10 -2 0 7 5 10 12 6 7 -4 8 -3 4 4 -9 14 4 15
24 2 12 -8 12 -10 1 -10 -8 0 -11 -3 -8 -6 4 -4 13 -2 20 4 8 7 17 10 21 7 3
-3 2 0 -3 6 -5 6 -7 17 -5 24 4 9 -9 12 -48 10 -29 -1 -58 2 -65 7 -7 5 -14 5
-18 -2 -3 -6 -11 -8 -16 -5 -5 4 -9 1 -9 -6 0 -10 -3 -10 -12 -1 -18 18 -31
15 -24 -5 6 -15 4 -15 -14 2 -11 10 -20 14 -20 9 0 -5 -7 0 -15 10 -8 11 -15
14 -15 7 0 -7 -5 -9 -12 -4 -28 17 -44 12 -44 -12z m58 0 c3 0 10 -4 15 -9 4
-5 3 -6 -4 -2 -6 3 -14 2 -18 -4 -4 -7 -13 -6 -27 1 -16 9 -18 13 -7 19 7 5
18 6 24 2 5 -4 13 -7 17 -7z m180 -10 c20 1 25 -1 18 -10 -8 -9 -44 -12 -94
-6 -6 1 -1 7 10 15 10 8 23 11 29 7 5 -4 22 -7 37 -6z m65 -12 c0 -9 -4 -10
-14 -2 -7 6 -13 12 -13 14 0 1 6 2 13 2 8 0 14 -6 14 -14z"/>
<path d="M2616 1172 c-3 -5 1 -9 9 -9 8 0 12 4 9 9 -3 4 -7 8 -9 8 -2 0 -6 -4
-9 -8z"/>
<path d="M2856 1169 c5 -9 31 -6 40 4 4 4 -4 6 -19 5 -14 -1 -24 -5 -21 -9z"/>
<path d="M6605 1159 c-3 -4 4 -18 16 -30 11 -13 18 -18 14 -11 -5 9 1 11 22 7
54 -12 73 -13 68 -5 -3 5 -13 6 -22 3 -11 -4 -14 -3 -9 5 10 17 26 15 48 -4
14 -13 21 -14 32 -5 11 9 15 9 18 0 3 -10 10 -8 28 4 17 12 27 14 37 6 7 -6
19 -9 28 -6 8 4 17 2 20 -3 4 -6 12 -10 18 -10 7 0 6 4 -3 11 -12 9 -11 10 8
6 15 -4 22 -1 22 11 0 15 14 8 16 -9 1 -5 2 -15 3 -21 1 -8 5 -7 11 4 11 19
47 17 42 -3 -2 -9 1 -9 10 -2 7 5 25 9 40 8 15 -1 25 2 22 7 -3 4 0 8 5 8 6 0
11 -5 11 -11 0 -6 9 -1 19 12 23 28 16 47 -8 25 -13 -12 -20 -13 -29 -4 -16
16 -44 19 -39 5 2 -7 11 -11 21 -9 9 2 16 -2 16 -7 0 -5 -9 -8 -20 -6 -13 3
-18 0 -14 -7 4 -7 2 -8 -5 -4 -6 4 -9 11 -6 16 3 4 -1 12 -8 18 -15 12 -47 12
-47 0 0 -5 -6 -6 -12 -1 -18 11 -39 13 -33 3 10 -17 -17 -22 -34 -6 -10 9 -20
14 -23 11 -9 -10 -51 -15 -62 -7 -15 9 -56 10 -56 1 0 -4 -8 -6 -17 -4 -10 2
-18 4 -18 5 0 6 -127 5 -130 -1z m94 -14 c-11 -11 -80 -15 -73 -4 2 4 -1 9 -7
11 -7 2 11 4 39 4 36 0 49 -3 41 -11z m60 -2 c8 -1 20 1 25 5 30 18 57 3 32
-17 -10 -9 -16 -9 -21 -1 -5 8 -11 7 -21 -1 -12 -10 -19 -8 -37 11 -12 12 -15
19 -7 14 8 -5 21 -9 29 -11z m151 -6 c0 -7 -4 -6 -10 3 -5 8 -10 10 -10 3 0
-13 -25 -12 -37 2 -4 4 -3 6 2 2 6 -3 17 -2 25 3 16 10 30 4 30 -13z m91 14
c14 7 20 4 29 -13 11 -22 10 -22 -4 -4 -11 13 -16 15 -16 6 0 -7 -3 -10 -7 -7
-3 4 -13 1 -22 -5 -9 -7 -13 -8 -9 -4 4 5 2 16 -4 25 -10 13 -10 14 2 4 9 -8
19 -9 31 -2z m139 5 c0 -2 -8 -10 -17 -17 -16 -13 -17 -12 -4 4 13 16 21 21
21 13z"/>
<path d="M6796 1138 c3 -5 10 -6 15 -3 13 9 11 12 -6 12 -8 0 -12 -4 -9 -9z"/>
<path d="M7185 1159 c-22 -8 -21 -9 13 -13 13 -2 25 1 27 5 8 11 -18 17 -40 8z"/>
<path d="M7634 1133 c-1 -13 4 -23 11 -23 7 0 12 10 11 23 0 13 -5 24 -11 24
-5 0 -11 -11 -11 -24z"/>
<path d="M7756 1143 c9 -6 25 -10 35 -8 11 2 17 0 14 -5 -3 -5 -16 -7 -29 -4
-27 5 -54 -20 -35 -32 8 -4 9 -3 5 4 -4 7 -2 12 3 12 19 0 26 -5 23 -15 -2 -5
2 -4 9 3 16 15 33 16 23 0 -4 -7 -3 -8 5 -4 6 4 9 11 6 16 -3 5 -2 18 4 28 9
16 5 18 -35 17 -36 0 -41 -2 -28 -12z"/>
<path d="M7846 1147 c3 -8 11 -14 19 -14 20 0 19 4 -5 17 -15 8 -18 8 -14 -3z"/>
<path d="M7945 1149 c-3 -4 2 -6 10 -5 21 3 28 13 10 13 -9 0 -18 -4 -20 -8z"/>
<path d="M8010 1144 c-8 -9 -15 -26 -17 -37 -2 -17 -1 -19 6 -7 5 8 7 18 4 24
-3 5 -1 6 6 2 6 -4 9 -11 6 -16 -3 -5 0 -12 6 -16 8 -4 9 -3 5 4 -5 8 1 12 14
12 14 0 19 -4 14 -12 -5 -8 -1 -8 10 1 18 15 68 22 60 9 -2 -3 0 -9 6 -13 6
-3 13 1 17 11 6 16 7 15 20 -2 10 -13 13 -14 13 -3 0 12 2 12 11 -1 9 -13 10
-12 5 3 -6 20 -2 21 25 6 11 -5 17 -15 13 -22 -5 -8 -2 -8 7 1 12 11 12 14 -1
22 -11 7 -11 10 -2 10 7 0 10 5 7 10 -10 16 1 11 16 -7 9 -11 10 -14 2 -9 -9
5 -11 2 -6 -9 5 -13 7 -14 14 -3 7 10 9 10 9 -2 0 -13 1 -13 10 0 8 13 10 13
10 1 0 -11 3 -10 13 3 13 18 15 18 36 -5 19 -21 21 -21 15 -4 -7 18 -6 19 12
5 18 -14 18 -14 4 4 -14 18 -13 19 3 13 10 -4 21 -7 23 -7 3 0 3 -4 0 -9 -7
-11 13 -9 32 2 6 5 12 4 12 -1 0 -5 12 -8 28 -7 15 1 33 -3 41 -9 11 -8 13 -8
8 1 -4 6 -3 14 3 18 5 3 10 1 10 -4 0 -6 5 -11 11 -11 5 0 7 5 4 10 -11 17 7
11 21 -7 11 -14 13 -15 9 -2 -4 10 0 16 10 16 10 0 14 -6 10 -15 -4 -12 -3
-13 10 -2 8 7 15 9 15 5 0 -4 7 -2 15 5 12 10 15 10 15 -1 0 -8 8 -2 18 14 10
15 22 24 27 20 4 -5 5 -2 1 5 -6 10 -11 10 -21 2 -9 -8 -15 -8 -20 0 -4 7 -12
7 -26 0 -11 -6 -24 -8 -29 -5 -5 3 -12 0 -16 -6 -5 -9 -11 -6 -21 7 -11 16
-15 17 -23 5 -12 -20 -40 -23 -47 -4 -5 12 -7 12 -14 1 -7 -11 -11 -10 -19 2
-9 13 -10 13 -10 0 0 -13 -2 -13 -9 -1 -7 12 -13 12 -24 3 -7 -7 -17 -9 -21
-4 -4 4 -49 7 -99 7 -51 1 -98 4 -104 8 -14 9 -26 -8 -18 -25 4 -7 0 -5 -7 4
-13 15 -15 15 -26 0 -7 -9 -10 -11 -7 -4 8 17 -4 34 -18 25 -18 -11 -36 -12
-43 -2 -3 5 -12 5 -23 -1 -12 -6 -21 -6 -28 1 -6 6 -14 4 -23 -7z m51 -4 c11
6 20 6 23 1 7 -10 25 -9 44 2 7 5 12 4 12 -2 0 -11 -3 -12 -37 -15 -10 -1 -24
-5 -32 -10 -10 -7 -12 -6 -6 4 5 9 2 10 -14 5 -13 -4 -21 -2 -21 5 0 6 -5 8
-12 4 -7 -5 -8 -3 -3 5 5 9 10 10 18 2 6 -6 16 -7 28 -1z m163 -12 c-3 -4 -11
-5 -19 -1 -21 7 -19 12 4 10 11 0 18 -5 15 -9z m86 -3 c1 -14 -28 -14 -40 -1
-7 10 -4 13 15 12 14 -1 25 -6 25 -11z m58 -2 c-8 -10 -14 -10 -24 -2 -18 15
-18 15 11 15 19 0 22 -3 13 -13z m57 7 c5 8 11 8 19 1 7 -6 16 -8 19 -4 4 3 7
1 7 -7 0 -10 3 -10 14 -1 10 8 16 9 21 1 3 -6 11 -7 17 -4 6 4 8 2 5 -3 -7
-11 -63 -10 -74 1 -3 3 -12 1 -18 -4 -8 -7 -18 -3 -31 12 -13 16 -14 19 -2 10
11 -9 18 -10 23 -2z m225 -10 c-8 -16 -15 -18 -29 -10 -10 5 -22 6 -26 2 -5
-4 -5 -1 -1 6 4 7 12 10 17 7 5 -4 17 -1 26 4 25 14 25 14 13 -9z m-76 2 c2
-4 -4 -8 -14 -8 -10 0 -16 4 -14 8 3 4 9 8 14 8 5 0 11 -4 14 -8z"/>
<path d="M8736 1128 c3 -5 10 -6 15 -3 13 9 11 12 -6 12 -8 0 -12 -4 -9 -9z"/>
<path d="M8807 1125 c11 -9 24 -10 34 -4 9 4 19 6 23 4 3 -3 4 -2 1 2 -3 4
-21 8 -40 9 -31 1 -33 0 -18 -11z"/>
</g>
</svg>
